<svg width="492" height="477" viewBox="0 0 492 477" fill="none" xmlns="http://www.w3.org/2000/svg">
<mask id="mask0" mask-type="alpha" maskUnits="userSpaceOnUse" x="0" y="180" width="193" height="133">
<path fill-rule="evenodd" clip-rule="evenodd" d="M0.160828 180.14H192.212V312.895H0.160828V180.14Z" fill="white"/>
</mask>
<g mask="url(#mask0)">
<path fill-rule="evenodd" clip-rule="evenodd" d="M192.212 236.891C192.212 236.891 145.38 183.485 112.967 180.214C80.5533 176.946 -16.1772 282.666 2.33204 297.378C20.844 312.091 44.1299 285.934 44.1299 285.934C44.1299 285.934 43.5322 308.823 54.879 312.637C66.2231 316.453 104.437 276.669 104.437 276.669C104.437 276.669 104.568 300.104 117.939 305.006C131.307 309.911 153.338 270.13 153.338 270.13C153.338 270.13 150.414 296.287 161.16 298.467C171.909 300.649 192.212 246.517 192.212 246.517V236.891Z" fill="#E2EFFF"/>
</g>
<path fill-rule="evenodd" clip-rule="evenodd" d="M300 236.855C300 236.855 346.778 183.351 379.158 180.074C411.535 176.8 508.159 282.715 489.67 297.455C471.178 312.195 447.918 285.989 447.918 285.989C447.918 285.989 448.515 308.92 437.181 312.742C425.85 316.565 387.678 276.708 387.678 276.708C387.678 276.708 387.547 300.185 374.193 305.097C360.838 310.011 338.833 270.156 338.833 270.156C338.833 270.156 341.752 296.362 331.015 298.546C320.28 300.732 300 246.5 300 246.5V236.855Z" fill="#E2EFFF"/>
<path fill-rule="evenodd" clip-rule="evenodd" d="M216 477C228.15 477 238 466.255 238 453C238 439.745 228.15 429 216 429C203.85 429 194 439.745 194 453C194 466.255 203.85 477 216 477Z" fill="#C7EAFC"/>
<path fill-rule="evenodd" clip-rule="evenodd" d="M271 477C283.15 477 293 466.255 293 453C293 439.745 283.15 429 271 429C258.85 429 249 439.745 249 453C249 466.255 258.85 477 271 477Z" fill="#C7EAFC"/>
<path fill-rule="evenodd" clip-rule="evenodd" d="M328.345 282.915C325.545 253.011 314.819 212 267.872 212H218.125C171.178 212 160.452 253.011 157.655 282.915C154.855 312.819 139 429.35 139 429.35C139 429.35 162.316 449 243 449C323.681 449 347 429.35 347 429.35C347 429.35 331.142 312.819 328.345 282.915Z" fill="#009042"/>
<path fill-rule="evenodd" clip-rule="evenodd" d="M150.059 327C149.921 326.997 149.852 326.997 149.852 326.997L151.085 319C151.103 319.005 151.127 319.008 151.148 319.013C150.794 321.614 150.431 324.285 150.059 327Z" fill="#EAF1FF"/>
<g opacity="0.3" filter="url(#filter0_f)">
<path fill-rule="evenodd" clip-rule="evenodd" d="M152.389 328C152.225 328 152.094 328 152 328C152.332 325.379 152.657 322.8 152.973 320.289C155.227 320.789 157.763 321.052 160.602 321.052C163.73 321.052 167.22 320.733 171.094 320.053C193.785 316.07 221.055 296.25 222.846 286.748C223.237 284.659 223.213 282.545 222.811 280.515C226.282 277.611 229.4 274.445 232 271C232 271 225.928 299.505 205.926 315.889C191.652 327.581 157.246 328 152.389 328Z" fill="black" fill-opacity="0.337636"/>
</g>
<path fill-rule="evenodd" clip-rule="evenodd" d="M333.901 328C333.901 328 333.867 328 333.808 328C333.567 326.311 333.33 324.645 333.099 323L333.901 328Z" fill="#EAF1FF"/>
<g opacity="0.3" filter="url(#filter1_f)">
<path fill-rule="evenodd" clip-rule="evenodd" d="M333 328C331.043 327.993 294.407 327.703 279.033 315.9C254.757 297.258 258.687 281.808 260.176 278C261.057 278.833 261.94 279.569 262.789 280.188C262.315 282.327 262.261 284.565 262.679 286.778C264.468 296.274 291.703 316.08 314.368 320.061C318.239 320.74 321.725 321.059 324.85 321.059C327.487 321.059 329.865 320.83 331.999 320.397L332.368 322.986C332.574 324.636 332.786 326.307 333 328Z" fill="black" fill-opacity="0.337636"/>
</g>
<path fill-rule="evenodd" clip-rule="evenodd" d="M353 131C353 205.139 301.961 224 238.999 224C176.039 224 125 196.035 125 131C125 65.9653 176.039 38 238.999 38C301.961 38 353 56.8613 353 131Z" fill="#FCE4BE"/>
<path d="M188 163C188 163 208.715 180 245 180C281.285 180 302 163 302 163" stroke="#BCB3A5" stroke-width="3"/>
<path fill-rule="evenodd" clip-rule="evenodd" d="M176 171C184.837 171 192 163.837 192 155C192 146.163 184.837 139 176 139C167.163 139 160 146.163 160 155C160 163.837 167.163 171 176 171Z" fill="#F8ABB2"/>
<path fill-rule="evenodd" clip-rule="evenodd" d="M312 171C320.837 171 328 163.837 328 155C328 146.163 320.837 139 312 139C303.163 139 296 146.163 296 155C296 163.837 303.163 171 312 171Z" fill="#F8ABB2"/>
<path fill-rule="evenodd" clip-rule="evenodd" d="M167.849 118.115C184.728 106.615 182.989 79.509 182.989 79.509C182.989 79.509 213.881 100.044 260.219 99.771C306.554 99.4981 323.433 90.1882 323.433 90.1882C323.433 90.1882 323.739 117.112 344.301 131.988C344.607 140.02 351.052 144.954 351.052 144.954C351.052 144.954 375.907 104.7 355.041 55.1415C334.173 5.58054 222.268 -23.4431 174.192 25.5696C173.679 15.714 146.686 6.12875 146.686 6.12875L163.554 28.0329L142.994 30.2234L156.189 34.6042C156.189 34.6042 116.91 58.9741 119.365 102.51C121.82 146.045 129.752 148.651 129.752 148.651L133.174 131.988C133.174 131.988 150.971 129.616 167.849 118.115Z" fill="#FFCB08"/>
<path fill-rule="evenodd" clip-rule="evenodd" d="M213 139C215.209 139 217 137.209 217 135C217 132.791 215.209 131 213 131C210.791 131 209 132.791 209 135C209 137.209 210.791 139 213 139Z" fill="#201E1A"/>
<path fill-rule="evenodd" clip-rule="evenodd" d="M277 139C279.209 139 281 137.209 281 135C281 132.791 279.209 131 277 131C274.791 131 273 132.791 273 135C273 137.209 274.791 139 277 139Z" fill="#201E1A"/>
<path fill-rule="evenodd" clip-rule="evenodd" d="M306.567 12.5495C306.523 12.5285 306.475 12.5075 306.433 12.4865C306.447 12.4745 306.462 12.4625 306.48 12.4505L306.567 12.5495Z" fill="#CEB48F"/>
<path fill-rule="evenodd" clip-rule="evenodd" d="M175.294 232C175.294 232 138.555 288.581 139.004 301.619C139.451 314.652 149.035 322.981 171.797 318.999C194.562 315.015 221.921 295.192 223.717 285.687C225.514 276.18 218.624 266.134 206.643 265.861C194.662 265.588 172.497 275.999 172.497 275.999C172.497 275.999 180.349 256.186 175.294 232Z" fill="#008F41"/>
<path fill-rule="evenodd" clip-rule="evenodd" d="M310.707 232C310.707 232 347.442 288.581 346.996 301.619C346.55 314.652 336.965 322.981 314.2 318.999C291.435 315.015 264.08 295.192 262.284 285.687C260.484 276.18 267.374 266.134 279.355 265.861C291.336 265.588 313.501 275.999 313.501 275.999C313.501 275.999 305.648 256.186 310.707 232Z" fill="#008F41"/>
<path fill-rule="evenodd" clip-rule="evenodd" d="M215.38 281.117C215.994 281.862 217.488 282.049 219.119 281.99C223.623 281.83 235.008 270.886 235.306 260.686C238.629 251.77 245.048 237.198 242.357 234.887C239.665 232.576 228.52 234.043 221.396 248.26C213.006 253.709 201.712 264.449 215.38 281.117Z" fill="#FCE4BE"/>
<path fill-rule="evenodd" clip-rule="evenodd" d="M271.62 281.117C271.009 281.862 269.512 282.049 267.884 281.99C263.378 281.83 251.991 270.886 251.693 260.686C248.37 251.77 241.951 237.198 244.644 234.887C247.334 232.576 258.479 234.043 265.604 248.26C273.994 253.709 285.287 264.449 271.62 281.117Z" fill="#FCE4BE"/>
<path fill-rule="evenodd" clip-rule="evenodd" d="M172.374 276.564C172.374 276.564 172.389 276.526 172.416 276.451C172.485 276.444 172.557 276.442 172.626 276.436C172.461 276.52 172.374 276.564 172.374 276.564Z" fill="#ACC6FF"/>
<path fill-rule="evenodd" clip-rule="evenodd" d="M219.221 250.74C219.398 250.575 219.575 250.416 219.758 250.26L219.779 250.287C219.593 250.437 219.407 250.587 219.221 250.74Z" fill="#BBACB8"/>
<defs>
<filter id="filter0_f" x="141.127" y="260.127" width="101.746" height="78.7463" filterUnits="userSpaceOnUse" color-interpolation-filters="sRGB">
<feFlood flood-opacity="0" result="BackgroundImageFix"/>
<feBlend mode="normal" in="SourceGraphic" in2="BackgroundImageFix" result="shape"/>
<feGaussianBlur stdDeviation="5.43656" result="effect1_foregroundBlur"/>
</filter>
<filter id="filter1_f" x="248.127" y="267.127" width="95.7463" height="71.7463" filterUnits="userSpaceOnUse" color-interpolation-filters="sRGB">
<feFlood flood-opacity="0" result="BackgroundImageFix"/>
<feBlend mode="normal" in="SourceGraphic" in2="BackgroundImageFix" result="shape"/>
<feGaussianBlur stdDeviation="5.43656" result="effect1_foregroundBlur"/>
</filter>
</defs>
</svg>