<svg xmlns="http://www.w3.org/2000/svg" x="0px" y="0px"
width="75" height="75"
viewBox="0 0 172 172"
style=" fill:#000000;"><g fill="none" fill-rule="nonzero" stroke="none" stroke-width="1" stroke-linecap="butt" stroke-linejoin="miter" stroke-miterlimit="10" stroke-dasharray="" stroke-dashoffset="0" font-family="none" font-weight="none" font-size="none" text-anchor="none" style="mix-blend-mode: normal"><path d="M0,172v-172h172v172z" fill="none"></path><g id="Layer_1"><g fill="#008c40"><path d="M149.984,97.524c1.892,-3.784 3.096,-7.912 3.096,-12.384c0,-11.352 -7.224,-21.156 -17.2,-24.94v0c0,-19.952 -16.168,-36.12 -36.12,-36.12c-16.856,0 -30.96,11.524 -34.916,27.176c-2.58,-0.86 -5.16,-1.376 -8.084,-1.376c-13.244,0 -24.08,9.976 -25.628,22.876c-8.944,1.892 -15.652,9.804 -15.652,19.264c0,11.008 8.772,19.78 19.78,19.78c0.344,0 0.688,0 0.86,0c0,0.344 0,0.516 0,0.86c0,19.436 15.824,35.26 35.26,35.26c11.008,0 20.984,-5.16 27.348,-13.072c3.784,3.784 8.944,6.192 14.792,6.192c8.084,0 14.964,-4.644 18.404,-11.18c1.892,0.516 3.784,0.86 5.676,0.86c10.492,0 18.92,-8.428 18.92,-18.92c0,-5.676 -2.58,-10.836 -6.536,-14.276z"></path></g><g><g fill="#fdfcef"><path d="M137.428,62.78c0,0 6.192,0 10.492,0c4.3,0 7.74,-3.44 7.74,-7.74c0,-3.956 -3.096,-7.224 -7.052,-7.74c0,-0.344 0.172,-0.688 0.172,-0.86c0,-4.3 -3.44,-7.74 -7.74,-7.74c-2.408,0 -4.644,1.204 -6.02,2.924c-0.172,-4.472 -3.956,-8.084 -8.6,-8.084c-4.816,0 -8.6,3.784 -8.6,8.6c0,0.688 0.172,1.548 0.344,2.236c-1.204,-1.376 -2.752,-2.236 -4.644,-2.236c-3.096,0 -5.504,2.236 -6.02,5.332c-0.344,0 -0.688,-0.172 -0.86,-0.172c-4.3,0 -7.74,3.44 -7.74,7.74c0,4.3 3.44,7.74 7.74,7.74c4.3,0 16.34,0 16.34,0h9.288v0.86h5.16z"></path></g><g fill="#472b29"><path d="M126.42,32.68c-5.16,0 -9.46,4.3 -9.46,9.46v0c-1.032,-0.688 -2.236,-0.86 -3.44,-0.86c-3.096,0 -5.848,2.236 -6.708,5.16h-0.172c-4.816,0 -8.6,3.784 -8.6,8.6c0,4.816 3.784,8.6 8.6,8.6h25.628c0.516,0 0.86,-0.344 0.86,-0.86c0,-0.516 -0.344,-0.86 -0.86,-0.86h-25.628c-3.784,0 -6.88,-3.096 -6.88,-6.88c0,-3.784 3.096,-6.88 6.88,-6.88c0.172,0 0.344,0 0.516,0h0.172c0,0 0,0 0.172,0c0.344,0 0.86,-0.344 0.86,-0.688c0.344,-2.58 2.58,-4.472 5.16,-4.472c1.548,0 2.924,0.688 3.956,1.892c0.172,0.172 0.344,0.344 0.688,0.344c0.172,0 0.344,0 0.344,-0.172c0.344,-0.172 0.516,-0.516 0.516,-1.032c-0.172,-0.688 -0.344,-1.376 -0.344,-2.064c0,-4.3 3.44,-7.74 7.74,-7.74c4.128,0 7.396,3.268 7.74,7.396c0,0.344 0.344,0.688 0.516,0.86c0.172,0 0.172,0 0.344,0c0.344,0 0.516,-0.172 0.688,-0.344c1.376,-1.72 3.268,-2.58 5.332,-2.58c3.784,0 6.88,3.096 6.88,6.88c0,0.172 0,0.344 0,0.516v0.172c0,0.172 0,0.516 0.172,0.688c0.172,0.172 0.344,0.344 0.516,0.344c3.612,0.344 6.192,3.268 6.192,6.88c0,3.784 -3.096,6.88 -6.88,6.88h-10.492c-0.516,0 -0.86,0.344 -0.86,0.86c0,0.516 0.344,0.86 0.86,0.86h10.492c4.816,0 8.6,-3.784 8.6,-8.6c0,-4.128 -2.924,-7.568 -6.88,-8.428v-0.172c0,-4.816 -3.784,-8.6 -8.6,-8.6c-2.064,0 -3.956,0.688 -5.504,2.064c-1.032,-4.128 -4.644,-7.224 -9.116,-7.224z"></path></g><g fill="#472b29"><path d="M123.84,44.72c-2.408,0 -4.472,1.72 -4.988,3.956c-0.688,-0.344 -1.376,-0.516 -2.064,-0.516c-2.064,0 -3.784,1.548 -4.128,3.612c-0.344,0 -0.688,-0.172 -1.032,-0.172c-2.58,0 -4.816,2.064 -4.988,4.644c0,0.172 0.172,0.516 0.344,0.516v0c0.172,0 0.344,-0.172 0.344,-0.344c0.172,-2.236 2.064,-3.956 4.128,-3.956c0.344,0 0.86,0 1.204,0.172c0,0 0,0 0.172,0c0.172,0 0.172,0 0.344,-0.172c0.172,0 0.172,-0.172 0.172,-0.344c0,-1.72 1.376,-3.268 3.268,-3.268c0.688,0 1.548,0.344 2.064,0.86c0,0 0.172,0.172 0.344,0.172h0.172c0.172,0 0.172,-0.172 0.344,-0.344c0.172,-2.236 2.064,-3.956 4.3,-3.956c0.344,0 0.688,0 1.204,0.172c0,0 0,0 0.172,0c0.172,0 0.344,-0.172 0.344,-0.344c0,-0.172 0,-0.516 -0.344,-0.516c-0.516,-0.172 -0.86,-0.172 -1.376,-0.172z"></path></g><g fill="#472b29"><path d="M147.748,47.3c-2.236,0 -4.3,1.548 -4.988,3.784c0,0.172 0,0.516 0.344,0.516c0,0 0,0 0.172,0c0.172,0 0.344,-0.172 0.344,-0.344c0.516,-1.892 2.236,-3.096 4.128,-3.096c0.172,0 0.344,0 0.516,0v0c0.172,0 0.344,-0.172 0.344,-0.344c0,-0.172 -0.172,-0.516 -0.344,-0.516c0,0 -0.344,0 -0.516,0z"></path></g></g><g fill="#ffffff"><g><path d="M26.488,87.72h-17.028c-0.516,0 -0.86,-0.344 -0.86,-0.86c0,-0.516 0.344,-0.86 0.86,-0.86h17.028c0.516,0 0.86,0.344 0.86,0.86c0,0.516 -0.344,0.86 -0.86,0.86z"></path></g><g><path d="M31.82,87.72h-1.72c-0.516,0 -0.86,-0.344 -0.86,-0.86c0,-0.516 0.344,-0.86 0.86,-0.86h1.72c0.516,0 0.86,0.344 0.86,0.86c0,0.516 -0.344,0.86 -0.86,0.86z"></path></g><g><path d="M40.42,91.16h-15.48c-0.516,0 -0.86,-0.344 -0.86,-0.86c0,-0.516 0.344,-0.86 0.86,-0.86h15.48c0.516,0 0.86,0.344 0.86,0.86c0,0.516 -0.344,0.86 -0.86,0.86z"></path></g><g><path d="M21.5,91.16h-1.72c-0.516,0 -0.86,-0.344 -0.86,-0.86c0,-0.516 0.344,-0.86 0.86,-0.86h1.72c0.516,0 0.86,0.344 0.86,0.86c0,0.516 -0.344,0.86 -0.86,0.86z"></path></g><g><path d="M16.34,91.16h-3.44c-0.516,0 -0.86,-0.344 -0.86,-0.86c0,-0.516 0.344,-0.86 0.86,-0.86h3.44c0.516,0 0.86,0.344 0.86,0.86c0,0.516 -0.344,0.86 -0.86,0.86z"></path></g><g><path d="M26.66,94.6h-3.44c-0.516,0 -0.86,-0.344 -0.86,-0.86c0,-0.516 0.344,-0.86 0.86,-0.86h3.44c0.516,0 0.86,0.344 0.86,0.86c0,0.516 -0.344,0.86 -0.86,0.86z"></path></g><g><path d="M31.82,79.12c-0.344,0 -1.376,0 -1.72,0c-0.516,0 -0.86,0.344 -0.86,0.86c0,0.516 0.344,0.86 0.86,0.86c0.344,0 1.376,0 1.72,0c0.516,0 0.86,-0.344 0.86,-0.86c0,-0.516 -0.344,-0.86 -0.86,-0.86z"></path></g><g><path d="M31.82,82.56c-0.344,0 -8.256,0 -8.6,0c-0.516,0 -0.86,0.344 -0.86,0.86c0,0.516 0.344,0.86 0.86,0.86c0.344,0 8.256,0 8.6,0c0.516,0 0.86,-0.344 0.86,-0.86c0,-0.516 -0.344,-0.86 -0.86,-0.86z"></path></g><g><path d="M40.42,86c-0.344,0 -4.816,0 -5.16,0c-0.516,0 -0.86,0.344 -0.86,0.86c0,0.516 0.344,0.86 0.86,0.86c0.344,0 4.816,0 5.16,0c0.516,0 0.86,-0.344 0.86,-0.86c0,-0.516 -0.344,-0.86 -0.86,-0.86z"></path></g></g><g fill="#ffffff"><g><path d="M148.78,104.92h-17.2c-0.516,0 -0.86,-0.344 -0.86,-0.86c0,-0.516 0.344,-0.86 0.86,-0.86h17.2c0.516,0 0.86,0.344 0.86,0.86c0,0.516 -0.344,0.86 -0.86,0.86z"></path></g><g><path d="M155.66,104.92h-3.44c-0.516,0 -0.86,-0.344 -0.86,-0.86c0,-0.516 0.344,-0.86 0.86,-0.86h3.44c0.516,0 0.86,0.344 0.86,0.86c0,0.516 -0.344,0.86 -0.86,0.86z"></path></g><g><path d="M164.26,108.36h-17.2c-0.516,0 -0.86,-0.344 -0.86,-0.86c0,-0.516 0.344,-0.86 0.86,-0.86h17.2c0.516,0 0.86,0.344 0.86,0.86c0,0.516 -0.344,0.86 -0.86,0.86z"></path></g><g><path d="M143.62,108.36h-1.72c-0.516,0 -0.86,-0.344 -0.86,-0.86c0,-0.516 0.344,-0.86 0.86,-0.86h1.72c0.516,0 0.86,0.344 0.86,0.86c0,0.516 -0.344,0.86 -0.86,0.86z"></path></g><g><path d="M138.288,108.36h-3.268c-0.516,0 -0.86,-0.344 -0.86,-0.86c0,-0.516 0.344,-0.86 0.86,-0.86h3.268c0.516,0 0.86,0.344 0.86,0.86c0,0.516 -0.344,0.86 -0.86,0.86z"></path></g><g><path d="M153.94,101.48h-8.6c-0.516,0 -0.86,-0.344 -0.86,-0.86c0,-0.516 0.344,-0.86 0.86,-0.86h8.6c0.516,0 0.86,0.344 0.86,0.86c0,0.516 -0.344,0.86 -0.86,0.86z"></path></g><g><path d="M148.78,111.8h-3.44c-0.516,0 -0.86,-0.344 -0.86,-0.86c0,-0.516 0.344,-0.86 0.86,-0.86h3.44c0.516,0 0.86,0.344 0.86,0.86c0,0.516 -0.344,0.86 -0.86,0.86z"></path></g></g><g><g fill="#f1c40f"><rect x="29.7" y="30.7" transform="scale(1.72,1.72)" width="43.6" height="7.6"></rect></g><g fill="#472b29"><path d="M124.872,54.008v10.664h-72.584v-10.664l72.584,0M127.28,51.6h-77.4v15.48h77.4v-15.48z"></path></g></g><g><g fill="#f1c40f"><rect x="29.7" y="45.7" transform="scale(1.72,1.72)" width="43.6" height="7.6"></rect></g><g fill="#472b29"><path d="M124.872,79.808v10.664h-72.584v-10.664h72.584M127.28,77.4h-77.4v15.48h77.4v-15.48z"></path></g></g><g><g fill="#f1c40f"><rect x="29.7" y="60.7" transform="scale(1.72,1.72)" width="43.6" height="7.6"></rect></g><g fill="#472b29"><path d="M124.872,105.608v10.664h-72.584v-10.664h72.584M127.28,103.2h-77.4v15.48h77.4v-15.48z"></path></g></g><g fill="#472b29"><path d="M102.34,87.72h-51.6c-0.516,0 -0.86,-0.344 -0.86,-0.86c0,-0.516 0.344,-0.86 0.86,-0.86h51.6c0.516,0 0.86,0.344 0.86,0.86c0,0.516 -0.344,0.86 -0.86,0.86z"></path></g><g fill="#472b29"><path d="M119.712,87.72h-1.548c-0.516,0 -0.86,-0.344 -0.86,-0.86c0,-0.516 0.344,-0.86 0.86,-0.86h1.548c0.516,0 0.86,0.344 0.86,0.86c0,0.516 -0.344,0.86 -0.86,0.86z"></path></g><g fill="#472b29"><path d="M124.7,113.52h-67.08c-0.516,0 -0.86,-0.344 -0.86,-0.86c0,-0.516 0.344,-0.86 0.86,-0.86h67.08c0.516,0 0.86,0.344 0.86,0.86c0,0.516 -0.344,0.86 -0.86,0.86z"></path></g><g fill="#472b29"><path d="M54.008,118.68h-1.548c-0.516,0 -0.86,-0.344 -0.86,-0.86c0,-0.516 0.344,-0.86 0.86,-0.86h1.548c0.516,0 0.86,0.344 0.86,0.86c0,0.516 -0.344,0.86 -0.86,0.86z"></path></g><g fill="#472b29"><path d="M112.66,60.2h-61.92c-0.516,0 -0.86,-0.344 -0.86,-0.86c0,-0.516 0.344,-0.86 0.86,-0.86h61.92c0.516,0 0.86,0.344 0.86,0.86c0,0.516 -0.344,0.86 -0.86,0.86z"></path></g><g fill="#472b29"><path d="M119.54,60.2h-1.548c-0.516,0 -0.86,-0.344 -0.86,-0.86c0,-0.516 0.344,-0.86 0.86,-0.86h1.548c0.516,0 0.86,0.344 0.86,0.86c0,0.516 -0.344,0.86 -0.86,0.86z"></path></g><g fill="#472b29"><path d="M113.348,87.72h-5.848c-0.516,0 -0.86,-0.344 -0.86,-0.86c0,-0.516 0.344,-0.86 0.86,-0.86h5.848c0.516,0 0.86,0.344 0.86,0.86c0,0.516 -0.344,0.86 -0.86,0.86z"></path></g><g><g fill="#fdfcef"><path d="M64.5,131.58c0,0 2.752,0 6.02,0c3.268,0 6.02,-2.752 6.02,-6.02c0,-3.096 -2.236,-5.504 -5.332,-6.02c0,-0.344 0.172,-0.688 0.172,-0.86c0,-3.268 -2.752,-6.02 -6.02,-6.02c-1.72,0 -3.44,0.86 -4.472,2.064c-0.688,-3.096 -3.44,-5.504 -6.708,-5.504c-3.784,0 -6.88,3.096 -6.88,6.88c0,0.344 0,0.688 0.172,1.032c-0.688,-0.516 -1.72,-1.032 -2.752,-1.032c-2.064,0 -3.784,1.548 -4.3,3.612c-0.344,0 -0.688,-0.172 -0.86,-0.172c-3.268,0 -6.02,2.752 -6.02,6.02c0,3.268 2.752,6.02 6.02,6.02c3.268,0 12.9,0 12.9,0v0.86h12.04z"></path></g><g fill="#472b29"><path d="M67.596,123.84c-0.172,0 -0.516,-0.172 -0.516,-0.516c0,-2.064 1.72,-3.784 3.784,-3.784c0,0 1.204,0 2.064,0.172c0.172,0 0.344,0.344 0.344,0.516c0,0.172 -0.344,0.344 -0.516,0.344c-0.688,-0.172 -1.892,-0.172 -1.892,-0.172c-1.548,0 -2.924,1.376 -2.924,2.924c0,0.344 -0.172,0.516 -0.344,0.516z"></path></g><g fill="#472b29"><circle cx="32.5" cy="76.5" transform="scale(1.72,1.72)" r="0.5"></circle></g><g fill="#472b29"><path d="M70.52,132.44h-6.02c-0.516,0 -0.86,-0.344 -0.86,-0.86c0,-0.516 0.344,-0.86 0.86,-0.86h6.02c2.924,0 5.16,-2.236 5.16,-5.16c0,-2.58 -1.892,-4.816 -4.472,-5.16c-0.172,0 -0.516,-0.172 -0.516,-0.344c0,-0.172 -0.172,-0.344 -0.172,-0.688c0,-0.344 0,-0.516 0,-0.86c0,-2.924 -2.236,-5.16 -5.16,-5.16c-1.376,0 -2.752,0.688 -3.784,1.72c-0.172,0.172 -0.516,0.344 -0.86,0.172c-0.344,0 -0.516,-0.344 -0.688,-0.688c-0.516,-2.752 -3.096,-4.816 -5.848,-4.816c-3.268,0 -6.02,2.752 -6.02,6.02c0,0.172 0,0.516 0,0.688c0,0.344 -0.172,0.688 -0.344,0.86c-0.172,0.172 -0.688,0.172 -1.032,0c-0.516,0 -1.376,-0.344 -2.064,-0.344c-1.72,0 -3.096,1.204 -3.44,2.752c0,0.516 -0.516,0.688 -1.032,0.688c-0.344,0 -0.516,0 -0.86,0c-2.924,0 -5.16,2.236 -5.16,5.16c0,2.924 2.236,5.16 5.16,5.16h12.9c0.516,0 0.86,0.344 0.86,0.86c0,0.516 -0.172,0.86 -0.688,0.86h-12.9c-3.784,0 -6.88,-3.096 -6.88,-6.88c0,-3.784 3.096,-6.88 6.88,-6.88c0.172,0 0.172,0 0.344,0c0.688,-2.064 2.58,-3.44 4.816,-3.44c0.516,0 1.204,0.172 1.72,0.344c0.344,-3.956 3.612,-7.224 7.74,-7.224c3.096,0 6.02,1.892 7.224,4.816c1.204,-0.86 2.58,-1.376 3.956,-1.376c3.784,0 6.88,3.096 6.88,6.88v0.172c2.924,0.688 5.16,3.44 5.16,6.708c0,3.784 -3.096,6.88 -6.88,6.88z"></path></g><g fill="#472b29"><path d="M61.06,130.72c-0.344,0 -1.376,0 -1.72,0c-0.516,0 -0.86,0.344 -0.86,0.86c0,0.516 0.344,0.86 0.86,0.86c0.344,0 1.376,0 1.72,0c0.516,0 0.86,-0.344 0.86,-0.86c0,-0.516 -0.344,-0.86 -0.86,-0.86z"></path></g></g></g></g></svg>