<svg width="20" height="20" viewBox="0 0 20 20" fill="none" xmlns="http://www.w3.org/2000/svg">
<path fill-rule="evenodd" clip-rule="evenodd" d="M12.8209 6.45818L11.9081 6.45879C11.1924 6.45879 11.0536 6.79879 11.0536 7.29758V8.39818H12.7609L12.5384 10.1224H11.0536V14.5455H9.27359V10.1224H7.78511V8.39818H9.27359V7.12727C9.27359 5.65152 10.1748 4.84848 11.4906 4.84848C12.1209 4.84848 12.6627 4.89515 12.8209 4.91636V6.45818ZM10.3027 0C4.94753 0 0.605713 4.34121 0.605713 9.69697C0.605713 15.0521 4.94753 19.3939 10.3027 19.3939C15.6584 19.3939 19.9997 15.0521 19.9997 9.69697C19.9997 4.34121 15.6584 0 10.3027 0Z" fill="#008C40"/>
</svg>