<svg width="20" height="20" viewBox="0 0 20 20" fill="none" xmlns="http://www.w3.org/2000/svg">
<path fill-rule="evenodd" clip-rule="evenodd" d="M10 0.000244141C4.47687 0.000244141 0 4.47712 0 10.0002C0 15.5227 4.47687 20.0002 10 20.0002C15.5231 20.0002 20 15.5227 20 10.0002C20 4.47712 15.5231 0.000244141 10 0.000244141Z" fill="#008C40"/>
<path fill-rule="evenodd" clip-rule="evenodd" d="M16.9912 9.56685L16.9551 9.52543L16.9249 9.4794L16.9083 9.44547L16.9033 9.40876L16.9181 9.37116L16.9317 9.35897L16.962 9.342L16.9737 9.32598L16.9776 9.30249L16.9659 9.29027L16.8897 9.27051H16.8741L16.8556 9.27713L16.8097 9.32225L16.7901 9.3336L16.7667 9.342L16.7432 9.34667L16.7218 9.34573L16.7062 9.33921L16.6661 9.30155L16.6349 9.28748L16.6076 9.27992L16.5841 9.26393L16.5646 9.22448L16.5529 9.1746L16.5441 9.14829L16.5344 9.136L16.4885 9.13136L16.4738 9.12474L16.4455 9.10693L16.4162 9.11251L16.3859 9.12662L16.3556 9.13324L16.3263 9.12662L16.3039 9.11251L16.2864 9.08903L16.2434 8.98082L16.2229 8.96392L16.1926 8.97421L16.179 8.98932L16.1545 9.02506L16.1399 9.03723L16.1272 9.04102L16.054 9.04579L16.0335 9.02604L16.0139 8.99769L15.9876 8.97421L15.9065 8.95166L15.8597 8.91874L15.8548 8.91397L15.8509 8.90372L15.849 8.88491L15.8421 8.86233V8.85954L15.8401 8.86233L15.8216 8.86888L15.8147 8.87352L15.8079 8.87641L15.7698 8.86979L15.7132 8.88023L15.6849 8.86979L15.6663 8.85759L15.6526 8.85192L15.6185 8.84819L15.6029 8.84167L15.5941 8.82843L15.5707 8.76168L15.56 8.74845L15.5453 8.7466L15.5238 8.75033L15.474 8.7466L15.4613 8.74936L15.4535 8.78425L15.4593 8.83784L15.4555 8.88864L15.4183 8.91306L15.4106 8.91121L15.3968 8.90187L15.388 8.89989L15.3784 8.90278L15.3266 8.9347L15.3226 8.92818V8.91024L15.3109 8.88958L15.3099 8.8877L15.2846 8.84537L15.2612 8.81621L15.2348 8.79363L15.2045 8.77482L15.143 8.74751L15.1157 8.72869L15.0415 8.61776L15.0142 8.59139L15.0083 8.58383L15.0073 8.5716L15.0092 8.55941L15.0171 8.53125L15.0152 8.48224L14.9907 8.45687L14.9224 8.42492L14.9097 8.39385L14.8989 8.35528L14.8872 8.32518L14.8716 8.31672L14.7935 8.32713L14.7711 8.33644L14.7251 8.38159L14.7017 8.39852L14.5895 8.43057L14.5337 8.42204L14.4821 8.42583L14.4313 8.44374L14.3024 8.51708L14.2926 8.52651L14.2858 8.53686L14.2731 8.56223L14.2662 8.5716L14.2516 8.58104L14.234 8.58292L14.2165 8.5801L14.1999 8.57358L14.1881 8.56408L14.1862 8.55379L14.1881 8.54247L14.1872 8.51802L14.1891 8.51335L14.1872 8.51055L14.1754 8.50294L14.1686 8.50011L14.1442 8.49453L14.1227 8.47945L14.1051 8.47572L14.0895 8.46628L14.0817 8.4634H14.0719L14.0661 8.46628L14.0505 8.48133L14.0329 8.49268L14.0144 8.50011L13.9958 8.50105L13.9782 8.49268L13.901 8.37316L13.8786 8.36284L13.8727 8.3412L13.8512 8.32992L13.7165 8.31948L13.6433 8.32804L13.6297 8.33271L13.6189 8.3412L13.6033 8.3619L13.5945 8.37037L13.5877 8.37316H13.573L13.5662 8.37598L13.5535 8.39109L13.5447 8.40608L13.534 8.41831L13.5154 8.42395L13.4988 8.42304L13.4832 8.41831L13.4675 8.41084L13.4529 8.4004L13.4364 8.38165L13.4315 8.36378L13.4305 8.34305L13.4246 8.31578L13.4139 8.29599L13.4002 8.2848L13.3837 8.27912L13.367 8.27624L13.3407 8.26598L13.3241 8.23673L13.287 8.09475L13.286 8.07973L13.2977 8.06559L13.3582 8.03928L13.3397 8.01674L13.3387 7.99128L13.3416 7.96212L13.3348 7.9292L13.328 7.91794L13.3192 7.91038L13.2997 7.8991L13.2889 7.88875L13.2879 7.87652L13.2899 7.86238L13.2879 7.84541L13.2811 7.8304L13.2655 7.80973L13.2596 7.79471L13.2586 7.77681L13.2606 7.76173L13.2596 7.74765L13.2499 7.73169L13.2401 7.72601L13.2216 7.72222L13.2147 7.71473L13.2128 7.70344V7.67149L13.2098 7.65826L13.2527 7.64985L13.2636 7.63941L13.2703 7.61875L13.2636 7.60567L13.2499 7.59805L13.2342 7.59338L13.2079 7.5915L13.1551 7.60373L13.1288 7.60185L13.1063 7.58021L13.0907 7.5407L13.0722 7.43156L13.0663 7.41469L13.0565 7.40246L13.0419 7.39678L13.0253 7.39967L13.0097 7.40619L12.995 7.40901L12.9804 7.39967L12.9658 7.39299L12.9541 7.39399L12.9179 7.41563L12.8544 7.442L12.8007 7.45413L12.7441 7.4504L12.7305 7.44573L12.7197 7.43538L12.7119 7.41748L12.708 7.39873L12.7031 7.38271L12.6924 7.37135L12.6689 7.36856L12.6191 7.37703L12.5937 7.36762L12.5381 7.34878L12.5088 7.34411L12.4814 7.35066L12.4522 7.37424L12.4385 7.37991L12.42 7.37609L12.3643 7.3526L12.4093 7.3225L12.4405 7.29052L12.46 7.25007L12.4532 7.20962L12.4375 7.21809H12.4248L12.4112 7.2153L12.3985 7.20962L12.3868 7.20207L12.3711 7.18799L12.3633 7.17764L12.3604 7.16729L12.3644 7.16068L12.3819 7.15695L12.3867 7.1466L12.3887 7.1344L12.3867 7.12396L12.3838 7.11371L12.3829 7.10142L12.3848 7.09013L12.3916 7.06849L12.3936 7.0563L12.3916 7.02999L12.3858 7.0093L12.375 6.99233L12.3428 6.95656L12.337 6.94721L12.334 6.93586L12.3301 6.91144L12.3272 6.90297L12.3165 6.89635L12.2891 6.88886L12.2803 6.8766L12.2881 6.84841L12.3184 6.83148L12.4502 6.80135L12.4961 6.80229L12.5108 6.79856L12.5401 6.76472L12.5391 6.71487L12.5176 6.66686L12.4873 6.63767L12.4717 6.62736L12.4463 6.59917L12.4327 6.58967H12.4239L12.4093 6.59628L12.4004 6.59255V6.58967L12.3974 6.5728L12.3956 6.56712L12.3907 6.56245L12.38 6.55593L12.375 6.5521L12.3458 6.51548L12.3301 6.5041H12.291V6.49385L12.2969 6.47594L12.294 6.45525L12.2774 6.42982L12.2676 6.40912L12.2628 6.38564L12.2608 6.3461L12.2578 6.32544V6.31882L12.2716 6.2916V6.27743L12.2696 6.26614L12.2647 6.25486L12.2569 6.24078L12.2442 6.22102L12.2315 6.20694L12.1817 6.17396L12.1709 6.16082L12.1515 6.11943L12.1368 6.09968L12.1046 6.07992L12.089 6.06581L12.0772 6.04418L12.0714 6.02725L12.0626 6.01596L12.043 6.00934L12.0079 6.0084L11.9728 6.01502L11.9044 6.04606L11.8507 6.0978L11.8342 6.09968L11.8205 6.07992L11.8253 6.03377L11.8108 6.01308L11.7989 6.01979L11.7882 6.02913L11.7775 6.03665L11.7638 6.03759L11.7521 6.03192L11.7306 6.0169L11.717 6.01411H11.6672L11.591 6L11.5803 6.00188L11.5676 6.01028L11.548 6.0348L11.5383 6.04418L11.5237 6.04979L11.5158 6.05446L11.5071 6.07143L11.5012 6.07804L11.4944 6.07992L11.4846 6.07422L11.4777 6.07331L11.4641 6.07992L11.384 6.14859L11.3703 6.15606L11.3567 6.15421L11.3333 6.1363L11.3206 6.12978H11.2982L11.2522 6.14107H11.2288L11.0755 6.06302L11.0384 6.07422L10.9711 6.04979L10.9398 6.05641L10.929 6.0978L10.9329 6.11093L10.9476 6.1363L10.9505 6.14671L10.9456 6.16082L10.9369 6.16835L10.9271 6.17396L10.9193 6.18152L10.9124 6.20312L10.9027 6.27649L10.8802 6.32356L10.846 6.34992L10.7387 6.39878L10.724 6.39972L10.6771 6.38749L10.6489 6.39037L10.6079 6.41006L10.5952 6.41295L10.5805 6.40439L10.5776 6.38564V6.363L10.5737 6.34325L10.5561 6.32635L10.5307 6.32161L10.4828 6.32544L10.394 6.33017L10.2583 6.30474H10.187L10.1255 6.32923L10.1089 6.34798L10.0972 6.3725L10.0845 6.39316L10.0669 6.40066L10.0483 6.3941L10.0123 6.36494L9.99367 6.3546L9.9634 6.35087L9.85698 6.35739L9.83751 6.363L9.8258 6.37623L9.83065 6.3969L9.82677 6.40251L9.82482 6.40818L9.8228 6.41389L9.81991 6.42041L9.84236 6.4232L9.85115 6.44017L9.84428 6.45619L9.82378 6.45713L9.81893 6.45051L9.81401 6.44863L9.80917 6.45051L9.80233 6.45525L9.79647 6.46274L9.79458 6.47027V6.4797L9.78772 6.49002L9.77886 6.49946L9.7691 6.50692L9.75836 6.5136L9.73691 6.522V6.52573L9.73883 6.53329L9.7428 6.53803V6.54643L9.73206 6.5606L9.7252 6.56806L9.71839 6.57095L9.69493 6.569L9.6891 6.57095L9.68611 6.5785V6.58967L9.68415 6.60011L9.66857 6.60851L9.66365 6.61613L9.65978 6.62453L9.6559 6.62827L9.65398 6.63209L9.63732 6.65369L9.6325 6.66219L9.62951 6.66592V6.6706L9.6354 6.68195L9.63638 6.70076L9.62271 6.71487L9.6051 6.72613L9.59534 6.73647L9.61099 6.74403L9.61682 6.74497V6.75428L9.60803 6.76378L9.6051 6.77786L9.60416 6.79288L9.59924 6.80423L9.59049 6.80796L9.56604 6.8089L9.55625 6.81169L9.56119 6.82775L9.55237 6.85308L9.55729 6.87005L9.55143 6.87472L9.54554 6.88422L9.54167 6.88701L9.54359 6.89168L9.54648 6.90297L9.53682 6.90676L9.51426 6.92655V6.93492L9.52897 6.94721L9.53574 6.95094V6.95844L9.52995 6.96029L9.52702 6.96223L9.52406 6.96505L9.52015 6.96791V6.9754L9.52897 6.98675L9.55433 6.99421L9.56699 7.00074L9.56119 7.01397L9.55722 7.01958L9.55045 7.02525L9.56022 7.03187L9.56796 7.03933L9.57096 7.04883L9.56604 7.05815L9.56998 7.07232L9.57581 7.08166L9.58268 7.0864L9.59049 7.09019V7.09859L9.57975 7.09675L9.57096 7.09954L9.56507 7.10803L9.56312 7.12305L9.56604 7.13719L9.57194 7.13998H9.57975L9.58945 7.1466L9.59342 7.15416L9.60126 7.18799L9.6051 7.1946L9.61099 7.20207L9.61197 7.20774L9.6022 7.21147L9.60705 7.24534L9.58557 7.26697L9.56214 7.2839L9.56022 7.30181L9.54658 7.32529L9.54456 7.32808L9.54359 7.35634L9.53971 7.36389L9.53089 7.36574L9.5251 7.35449L9.51628 7.34505L9.50652 7.33853L9.49578 7.33564L9.48504 7.33664L9.47332 7.33285L9.45571 7.30742L9.44403 7.29714L9.43329 7.29425H9.40985L9.39817 7.29052L9.38733 7.28111L9.36393 7.25195L9.35811 7.23972L9.36003 7.23878L9.36689 7.21436L9.36787 7.20489V7.19272L9.36689 7.18325L9.36488 7.17579L9.35713 7.17012L9.34737 7.16068L9.30828 7.14187L9.29754 7.13067L9.26825 7.09207L9.24673 7.07605L9.22431 7.07044L9.11593 7.07326L9.09832 7.07887L9.05149 7.10236H9.04172L9.02906 7.09392L9.02122 7.09301L9.01146 7.09954L8.99876 7.12211L8.99095 7.13067L8.97732 7.1344L8.90698 7.12305L8.89728 7.10998L8.89042 7.09207L8.87776 7.07044L8.86402 7.06097L8.84746 7.05909L8.82985 7.06188L8.81426 7.06758L8.7986 7.08166L8.79076 7.09486L8.77904 7.10803L8.76056 7.11465L8.74005 7.1165L8.72931 7.12211L8.7215 7.13625L8.71076 7.16535L8.69904 7.1851H8.68336L8.64922 7.17197L8.63171 7.17764L8.60141 7.20301L8.58575 7.20868L8.56824 7.19928L8.55848 7.17764L8.55161 7.15127L8.54279 7.12779L8.5272 7.10988L8.51454 7.10048L8.50963 7.08734L8.51646 7.0563L8.5135 7.02525L8.50478 7.0055L8.47835 6.96791L8.46181 6.9246L8.45205 6.90959L8.43347 6.8982L8.40222 6.89074L8.38663 6.89168L8.37095 6.89726L8.35539 6.91238L8.3368 6.95003L8.32219 6.96596L8.30169 6.97352H8.25381L8.23136 6.97819L8.20698 6.99139L8.18257 7.01024L8.16112 7.0356L8.14543 7.06849L8.14351 7.08825L8.14543 7.13346L8.14156 7.15127L8.12783 7.16629L8.12008 7.15416L8.11419 7.13161L8.10836 7.1165L8.0986 7.11556L8.08786 7.12211L8.07712 7.12685L8.06436 7.12117L8.05661 7.10894L8.0517 7.09207L8.03998 7.02525L8.03803 7.00074L8.03116 6.98481L8.01066 6.97725L7.9414 6.96317H7.91989L7.89942 6.96979L7.8603 6.99515L7.83979 7.01397L7.83003 7.01958L7.82033 7.01585L7.81541 7.00641L7.80659 6.97352L7.80178 6.96129L7.79201 6.95094L7.76956 6.93774L7.75976 6.9284L7.75292 6.91517L7.75195 6.90388V6.89353L7.74902 6.88133L7.73734 6.86914L7.72168 6.8682L7.70414 6.8766L7.68751 6.89074L7.67192 6.91332L7.6465 6.95935L7.62801 6.9754L7.6133 6.98108H7.53718L7.52253 6.97725L7.50785 6.96979L7.46102 6.92084L7.44439 6.91238L7.42684 6.91517L7.41217 6.9284L7.40247 6.94815L7.39755 6.97258V6.98769L7.3985 7.00168L7.39947 7.01491L7.3956 7.03093L7.39163 7.03839L7.35557 7.08546L7.34772 7.09301L7.33503 7.09486L7.32432 7.09019L7.31163 7.08072L7.30089 7.06953L7.29598 7.06003L7.32139 6.99983L7.32722 6.96979L7.31746 6.94433L7.30476 6.93774L7.26083 6.9368L7.17686 6.90388L7.14955 6.90297L7.13487 6.91049L7.11339 6.93307L7.09683 6.94154L7.08117 6.94248L7.03531 6.93492L7.00407 6.94433L6.9875 6.94627L6.97676 6.9368L6.98161 6.91611L6.99333 6.8898L6.99525 6.86914L6.97282 6.86352L6.95424 6.86537L6.93865 6.86352L6.92791 6.85308L6.92202 6.8296V6.79762L6.92404 6.77219L6.91912 6.75337L6.89862 6.74215L6.8664 6.73556L6.79808 6.73268L6.71991 6.75905L6.66822 6.75055L6.52079 6.68756L6.34992 6.68195L6.33918 6.67627L6.32942 6.66313L6.32746 6.65175L6.32942 6.64056V6.63209L6.3206 6.62736L6.13997 6.61986L6.11656 6.60945L6.06674 6.56618L6.04334 6.56151L5.98963 6.56339L5.82362 6.53329L5.7582 6.54549L5.50046 6.54176L5.36966 6.50792L5.33451 6.50886L5.2993 6.52015L5.23 6.55593L5.01227 6.58967L4.9957 6.58876L4.94783 6.57756L4.7545 6.59255L4.73794 6.59823L4.72131 6.61513L4.69306 6.65558L4.68134 6.67916L4.66276 6.75811L4.64131 6.78821L4.55343 6.84656L4.43724 6.94721L4.406 6.95188L4.38354 6.93213L4.36206 6.90676L4.33082 6.89447L4.31126 6.89262L4.25661 6.8766H4.239L4.16285 6.89541L4.15308 6.90015L4.14524 6.90864L4.13551 6.9246L4.13453 6.93401L4.13944 6.94342L4.16092 7.00074L4.16285 7.01212L4.15897 7.03093L4.1521 7.03466L4.14524 7.02908L4.14621 7.03651L4.15116 7.05347L4.17167 7.06097L4.1853 7.0657L4.19604 7.07326L4.18436 7.09769L4.1853 7.10521L4.21655 7.15033L4.22244 7.16444L4.21365 7.16824L4.20776 7.17673L4.20678 7.18893L4.2117 7.20489L4.19702 7.21056L4.18338 7.22464L4.17264 7.24252L4.16877 7.25854L4.17359 7.2839L4.1853 7.29052H4.19992L4.21267 7.29902L4.25563 7.39017L4.27318 7.41086L4.31223 7.43538L4.3493 7.4711L4.35809 7.48524L4.34543 7.49176L4.34253 7.50314L4.35422 7.52663L4.37475 7.55673L4.38162 7.57269L4.39034 7.62254V7.6301L4.38741 7.6395L4.39331 7.64418L4.40307 7.64797L4.41277 7.65452L4.42159 7.66682L4.42351 7.67616L4.42448 7.68657L4.42846 7.70159L4.44014 7.72034L4.4929 7.7674L4.55731 7.80218L4.56707 7.81726L4.55731 7.83795L4.53391 7.84262H4.50845L4.4929 7.84924L4.47236 7.83795L4.45091 7.84074L4.43327 7.85397L4.42351 7.87467L4.42448 7.89725L4.43627 7.91233L4.45475 7.92073L4.47623 7.92352V7.93108L4.46647 7.95177L4.47721 7.96968L4.49869 7.98187L4.51919 7.98655L4.51434 8.01386L4.52017 8.03834L4.53973 8.0844L4.52219 8.11451L4.52993 8.16997L4.53488 8.186L4.53875 8.18973L4.53778 8.19255L4.52801 8.20575L4.51337 8.22077L4.46357 8.24623L4.46162 8.26031L4.4626 8.28292L4.46162 8.29793L4.45768 8.31016L4.44014 8.34876L4.39913 8.36572L4.25853 8.36757L4.23214 8.37598L4.2185 8.38259L4.20776 8.39294L4.19894 8.40987L4.18823 8.4428L4.17749 8.45781L4.11595 8.52178L4.09349 8.53965L4.0515 8.57076L4.01639 8.59706L3.83865 8.78237L3.81525 8.81721L3.78697 8.83884L3.75572 8.87167L3.67175 8.99117L3.63953 9.02321L3.63556 9.03256L3.62977 9.05604L3.6258 9.0646L3.61903 9.07112L3.6053 9.07583L3.59853 9.08056L3.59068 9.08903L3.54287 9.17272L3.53011 9.18588L3.52139 9.18968L3.50476 9.19341L3.49597 9.2009L3.49015 9.21131L3.47641 9.24803L3.41789 9.3241L3.39833 9.3684L3.41295 9.40976L3.41789 9.42666L3.42271 9.47564L3.42571 9.48871L3.42766 9.49539L3.43742 9.51135L3.45399 9.52825L3.4589 9.53681L3.4618 9.55462L3.47254 9.66001L3.46964 9.67691L3.45695 9.71168L3.44621 9.75213L3.43345 9.77656L3.42958 9.7907L3.43443 9.79631L3.4384 9.79352L3.44914 9.78132L3.46085 9.78979H3.45988L3.45695 9.7907L3.4823 9.80766L3.50476 9.83676L3.51937 9.8472L3.55459 9.86604L3.56435 9.87724V9.88674L3.55748 9.90928L3.55654 9.9243L3.55944 9.93465L3.57213 9.95531L3.57509 9.96092L3.5663 9.97883L3.55062 9.97228L3.53311 9.95719L3.51937 9.95067L3.51065 9.94785L3.49597 9.9281L3.48819 9.92057L3.47941 9.91957L3.4618 9.92521L3.43345 9.92336L3.41692 9.92521L3.40029 9.92336L3.38082 9.91113L3.3515 9.88012L3.33584 9.87539L3.31928 9.89044L3.31339 9.90928L3.30759 9.93556L3.30362 9.96193V9.98071L3.29191 9.99112L3.26164 9.99576L3.248 10.0061L3.23144 10.0541L3.22164 10.0739L3.2207 10.0795V10.0946L3.21868 10.1011L3.21191 10.1116L3.19332 10.1265L3.18548 10.1369L3.18063 10.151V10.1595L3.18161 10.1689L3.18356 10.2074L3.18161 10.215L3.17572 10.2281L3.16892 10.2375L3.16208 10.2432L3.15625 10.2507L3.15326 10.2657L3.15424 10.2902L3.14939 10.3137L3.13962 10.3344L3.12693 10.3504L3.11717 10.3561L3.09666 10.3627L3.0869 10.3692L3.08107 10.3768L3.07323 10.3946L3.06831 10.4031L3.01761 10.4426L3.00583 10.4604L3.00391 10.4831L3.01269 10.5282L3.00976 10.5461L3.00098 10.564L3 10.6448L3.01858 10.6477H3.0205L3.02835 10.6391L3.0537 10.6298L3.0801 10.6335L3.1074 10.6468L3.09569 10.6806V10.6984L3.11717 10.6975L3.12306 10.6984L3.12888 10.7078V10.7191L3.12693 10.7323L3.12791 10.7483L3.13673 10.7708L3.17474 10.8273L3.17966 10.832L3.18548 10.8329L3.19137 10.831L3.19726 10.8264L3.20019 10.8255H3.20602L3.22164 10.831L3.23433 10.8339L3.24605 10.8329L3.26066 10.8255H3.26366L3.26655 10.8264L3.26945 10.8273L3.32712 10.9007L3.33689 10.9232L3.34763 10.959L3.3613 10.9853L3.36517 10.99H3.36709L3.37783 10.9844H3.43355L3.44816 10.9797L3.46085 10.9713L3.47449 10.9674L3.48725 10.975L3.49015 10.9806L3.51849 10.9956L3.5419 11.0163L3.55264 11.0286L3.56041 11.0437L3.5663 11.0643L3.56338 11.0756L3.55846 11.086L3.55748 11.1039L3.54385 11.1198L3.55072 11.133L3.57897 11.1556L3.59462 11.1509L3.60829 11.1414L3.61418 11.1264L3.60634 11.1029L3.61314 11.0897L3.62482 11.0888L3.63856 11.0954L3.65027 11.1039L3.66297 11.1113L3.67563 11.1152L3.68829 11.1133L3.72158 11.0878L3.73229 11.069L3.74983 11.0173L3.76549 10.9947L3.78108 10.9872L3.79869 10.99L3.85239 11.0079L3.86602 11.0173L3.89824 11.054L3.93541 11.0841L3.95292 11.1039L3.95881 11.1057L3.96464 11.1067H3.97053L3.97632 11.1048H3.98029L4.0311 11.1292L4.04666 11.1283L4.05255 11.1246L4.0574 11.1189L4.06127 11.1124L4.06524 11.1048L4.07298 11.0982L4.0818 11.0954L4.1111 11.0897L4.12571 11.0944L4.17554 11.1001L4.20776 11.1104L4.22634 11.1124L4.28004 11.1095L4.2927 11.1161L4.33277 11.1518L4.33762 11.1688H4.35422L4.43233 11.1377L4.45671 11.1387L4.46946 11.148L4.50845 11.1584L4.52414 11.165L4.55239 11.1913L4.56613 11.1941L4.56707 11.1932L4.61296 11.2102L4.62959 11.2111L4.68424 11.1838L4.72228 11.1828L4.75258 11.1575L4.77016 11.148H4.78477L4.82871 11.1584L4.87265 11.1575L4.88732 11.1612L4.92342 11.1819L4.94298 11.197L4.9547 11.212L4.95961 11.2299L4.96059 11.245L4.96446 11.2591L4.9781 11.2741L5.00449 11.2901L5.06701 11.3136L5.07772 11.323L5.08752 11.3361L5.11385 11.3814L5.1324 11.4086L5.14701 11.418L5.23882 11.403L5.28761 11.3823L5.3199 11.3522L5.39508 11.2318L5.42828 11.2092L5.80995 11.1697L5.86075 11.1499L5.90176 11.1452L5.92519 11.1349L5.93785 11.1321L5.97502 11.1358L6.02475 11.1218L6.0999 11.1208L6.13707 11.1048L6.14491 11.0935L6.16242 11.0549L6.17219 11.0427L6.19272 11.0258L6.20245 11.0154L6.21417 10.9919L6.22686 10.9571L6.23471 10.9214L6.23373 10.896L6.23962 10.8593L6.24545 10.8621L6.26003 10.863L6.27474 10.8593L6.30009 10.8471L6.31279 10.8433L6.34992 10.8414L6.36258 10.8386L6.46022 10.8179L6.48365 10.8066L6.4847 10.7972L6.48759 10.7831L6.49641 10.7699L6.52173 10.754L6.52564 10.7389L6.53055 10.7294L6.54614 10.7351L6.55688 10.7464L6.56567 10.7605L6.57543 10.7728L6.59008 10.7793L6.60573 10.7784L6.61455 10.7708L6.61742 10.7558V10.7342L6.61358 10.7126L6.60863 10.6993L6.60769 10.689L6.6155 10.6777H6.62035L6.63301 10.6825H6.63893L6.64577 10.6759L6.64772 10.6675L6.65062 10.6608L6.65944 10.658L6.68479 10.6693L6.71021 10.69L6.73751 10.706L6.76684 10.7013L6.77465 10.6937L6.78048 10.6947L6.78539 10.6975L6.79411 10.6966L6.80388 10.6984L6.80785 10.6956L6.80687 10.69L6.80388 10.6834L6.80293 10.6787V10.6712L6.80098 10.6618L6.80196 10.6533L6.81074 10.6505L6.81859 10.6533L6.83512 10.6627L6.91815 10.6928L6.9435 10.6937L6.97282 10.6787L7.01972 10.6223L7.04797 10.6082L7.06268 10.6119L7.08511 10.6317L7.09588 10.6354L7.10854 10.6289L7.15538 10.5903L7.17298 10.5668H7.2052L7.21399 10.5649L7.2345 10.5517L7.25106 10.5535L7.25301 10.5827L7.26867 10.5903L7.36533 10.5893L7.39163 10.6016L7.44146 10.6373L7.45317 10.6468L7.47758 10.6825L7.48347 10.6881L7.50105 10.7135L7.53233 10.7257L7.60158 10.7342L7.61727 10.7417L7.62993 10.7558L7.63381 10.7756L7.61822 10.8198L7.62896 10.8282L7.6465 10.8292L7.65828 10.8264L7.68266 10.8066L7.69535 10.8048L7.70124 10.8236L7.70414 10.8452L7.71198 10.8583L7.72464 10.8621L7.74323 10.8583L7.75976 10.8489L7.77245 10.8386L7.78515 10.8301L7.8213 10.8264L7.83497 10.8282L7.84279 10.8376L7.84474 10.8593L7.83885 10.8818L7.83012 10.8922L7.81938 10.8988L7.80757 10.9129L7.80272 10.9289L7.80467 10.9449L7.81346 10.9543L7.83012 10.9515L7.84181 10.9383L7.84861 10.9214L7.85838 10.9082L7.87598 10.9054L7.8877 10.9138L7.89551 10.9289L7.89457 10.9458L7.88187 10.9599L7.9043 11.0041L7.914 11.0136L7.92968 11.0239L7.93749 11.023L7.94042 11.0126V10.9938L7.94625 10.9703L7.96093 10.9298L7.97844 10.9223L8.00389 10.9232L8.07517 10.9515L8.12887 10.9524L8.15715 10.9571L8.17863 10.9713L8.18354 10.9797L8.1855 10.9882L8.18644 10.9956L8.18839 11.0032L8.20109 11.0324L8.20698 11.0625L8.20795 11.0691L8.21277 11.0766L8.22553 11.0878L8.24603 11.1227L8.27139 11.149L8.29879 11.1697L8.32219 11.1791L8.35044 11.1735L8.38468 11.1302L8.40909 11.1189H8.42273L8.43347 11.1227L8.44323 11.1312L8.45205 11.1452L8.45784 11.1622L8.46471 11.2007L8.4706 11.2168L8.48134 11.2252L8.51155 11.2346L8.51939 11.2403L8.51646 11.2553L8.50478 11.2713L8.49007 11.2863L8.48037 11.2986L8.4735 11.3184V11.3306L8.48134 11.3381L8.50767 11.3475L8.51744 11.3559L8.52033 11.3682L8.51155 11.3823L8.48811 11.4115L8.48424 11.4462L8.48522 11.4858L8.47737 11.5271L8.45687 11.561L8.43741 11.5864L8.42764 11.6156L8.43741 11.6598L8.44421 11.6739L8.45592 11.7068L8.46279 11.7181L8.47643 11.7285L8.48232 11.7228L8.49007 11.7106L8.50282 11.7049L8.51454 11.7106L8.52818 11.7341L8.55161 11.7491L8.5575 11.7605L8.56137 11.7736L8.56824 11.7849L8.57993 11.7915L8.59164 11.7943L8.60336 11.7989L8.61312 11.8131L8.617 11.83V11.846L8.61895 11.8621L8.62969 11.8789L8.64043 11.8883L8.65221 11.894L8.6649 11.8949L8.67756 11.8912L8.6912 11.8789L8.70194 11.8648L8.70591 11.8479L8.71366 11.8309L8.72931 11.829L8.7449 11.83L8.75961 11.8357L8.77227 11.8469L8.78301 11.8658L8.78988 11.8912L8.79086 11.9166L8.78204 11.9353L8.76251 11.9447L8.75961 11.9683L8.76736 12.0256L8.76251 12.0529L8.75177 12.0661L8.73514 12.0709L8.71366 12.0727L8.71174 12.0755V12.083L8.71366 12.0868L8.73716 12.1301L8.74393 12.1367L8.75275 12.1301L8.75961 12.1159L8.76834 12.1037L8.78301 12.1028L8.79375 12.1094L8.80257 12.1207L8.80837 12.1357L8.80934 12.1527L8.80352 12.1677L8.79375 12.178L8.78497 12.1903L8.77914 12.2307L8.7752 12.2477L8.77423 12.2617L8.78106 12.274L8.78591 12.275L8.80547 12.273L8.81234 12.2768L8.82405 12.29L8.83082 12.2957L8.84358 12.3003L8.86894 12.3022L8.88062 12.3069L8.89331 12.3192L8.91092 12.3474L8.92553 12.3577L8.95001 12.3615L8.97247 12.3596L8.99489 12.3624L9.01735 12.3803L9.02122 12.3878L9.02711 12.4076L9.03102 12.4132L9.03785 12.4141L9.04465 12.4095L9.05246 12.4066L9.06128 12.4113L9.0632 12.4189V12.4424L9.06418 12.4527L9.06718 12.4603L9.0759 12.4762L9.07987 12.4847L9.08081 12.5045L9.07395 12.5722L9.07105 12.5844L9.06718 12.5948L9.06418 12.6051V12.6192L9.06718 12.6305L9.07687 12.653L9.07889 12.6634L9.07007 12.687L9.05246 12.6897L9.03883 12.6907L9.04172 12.7151L9.05246 12.7283L9.08664 12.7424L9.08758 12.7452L9.09155 12.7556L9.09445 12.7575L9.0994 12.7556L9.1091 12.75H9.11401L9.1199 12.7546L9.12475 12.7613L9.13451 12.7801L9.12862 12.7895L9.16384 12.8167L9.1765 12.8318L9.18434 12.8252L9.19603 12.8233L9.20872 12.8252L9.21946 12.8318L9.20088 12.8647L9.18037 12.8836L9.14623 12.8892L9.05442 12.8836L9.04172 12.8863L9.02809 12.8939L8.99876 12.9183L8.98321 12.9203L8.96752 12.9033L8.9656 12.8958V12.8751L8.96462 12.8647L8.96065 12.8553L8.94412 12.8309L8.90308 12.7932L8.89331 12.7763V12.8064L8.88453 12.8224L8.86894 12.8281H8.84746L8.84261 12.8346L8.84648 12.861L8.84059 12.8788L8.82985 12.8892L8.81719 12.8939L8.80352 12.893L8.7918 12.8863L8.78106 12.8723L8.77035 12.8488L8.75864 12.8394L8.7478 12.8355L8.72342 12.8309L8.71174 12.8261L8.70689 12.8187L8.70591 12.8102L8.70689 12.8017L8.71174 12.7932L8.71568 12.7858L8.71763 12.7782L8.71665 12.7706L8.71268 12.764L8.69413 12.7613L8.67756 12.7697L8.66295 12.7858L8.62871 12.8355H8.61895L8.60531 12.8158L8.58673 12.7782L8.57599 12.7744L8.56235 12.797L8.55942 12.8102L8.56329 12.8318V12.8412L8.5575 12.8553L8.55353 12.8572L8.5477 12.8553L8.53794 12.8581L8.50963 12.8882L8.49208 12.8985L8.47835 12.8882V12.8769L8.48326 12.8666L8.49007 12.8562L8.49498 12.8459L8.49693 12.8328L8.49596 12.7415L8.49104 12.718L8.47835 12.7029H8.46181L8.3934 12.7405L8.35142 12.7556L8.29384 12.7932L8.27825 12.8167L8.27334 12.8468L8.27923 12.8863L8.29287 12.9381L8.29384 12.955L8.28899 12.9748L8.2831 12.9908V13.0058L8.29677 13.0227L8.3427 13.0641L8.34657 13.0877L8.33778 13.113L8.32017 13.1422L8.29384 13.1714L8.28795 13.1884L8.28997 13.2146L8.30361 13.2617L8.30169 13.2833L8.28213 13.2918L8.14641 13.3257L8.13274 13.3341L8.12395 13.3501V13.368L8.13469 13.4056L8.13759 13.4254L8.13665 13.447L8.1318 13.4611L8.122 13.4705L8.10742 13.479L8.08496 13.4837L8.07907 13.4884V13.4949L8.08099 13.5044L8.08197 13.5156L8.07907 13.526L8.05853 13.5373L8.00679 13.542L7.99413 13.5617L8.00002 13.5815L7.99507 13.59L7.97264 13.5965L7.95898 13.605L7.95019 13.6135L7.93258 13.6398L7.92675 13.6521L7.93356 13.6595L7.94527 13.6661L7.95504 13.6765L7.95995 13.6916L7.96093 13.7066L7.96382 13.7216L7.97457 13.7358L7.95406 13.7452L7.94921 13.7489L7.9443 13.7583V13.7611L7.94631 13.763L7.95116 13.7988L7.94729 13.811L7.93063 13.8185L7.88083 13.8167L7.82228 13.8016L7.76663 13.7978L7.72562 13.8279L7.71875 13.8402L7.71296 13.8533L7.71101 13.8609L7.72168 13.8731L7.74121 13.8712L7.76367 13.8834L7.77834 13.9032L7.77441 13.9239L7.79693 13.9813L7.81252 14.0076L7.83012 14.0189L7.84279 14.0227L7.87009 14.0377L7.93945 14.0547L8.00389 14.0875L8.10742 14.1101L8.13665 14.1064L8.16112 14.1055L8.17079 14.1016L8.17957 14.0922L8.15809 14.0828L8.1523 14.0782L8.14833 14.0706L8.14641 14.0612L8.14833 14.0527L8.17079 14.0423L8.16981 14.0264L8.17079 14.0113L8.19129 14.0066L8.20301 14.0104L8.22351 14.0245L8.24112 14.0274L8.25088 14.0339L8.26358 14.0471L8.27923 14.0556L8.29677 14.049L8.30071 14.0414L8.30266 14.0207L8.30751 14.0113L8.3134 14.0076L8.32017 14.0057L8.33778 14.0048L8.34852 13.9991L8.38855 13.9671L8.42175 13.9577L8.43539 13.9521L8.44613 13.9408L8.45205 13.938L8.4706 13.937L8.47448 13.9342L8.47737 13.9267L8.48424 13.9192L8.49596 13.9098L8.51259 13.9013L8.52528 13.9004L8.53794 13.9032H8.55451L8.56137 13.9004L8.56824 13.8956L8.57403 13.8901L8.57895 13.8843L8.58575 13.8797L8.59454 13.8816L8.60336 13.8862L8.6112 13.8882L8.6707 13.8938L8.77914 13.9314L8.81524 13.9625L8.82405 13.9671L8.84156 13.9831L8.85432 14.0198L8.8582 14.0612L8.84843 14.0913L8.85328 14.0979L8.85432 14.1055L8.8523 14.1129L8.84843 14.1205L8.86015 14.1232L8.87379 14.1195L8.88654 14.1129L8.90116 14.0988L8.90213 14.0979L8.90116 14.096L8.90018 14.0875L8.90213 14.0763L8.91092 14.0508L8.9119 14.0424L8.91779 14.0274L8.92068 14.0179L8.92166 14.0085L8.91974 13.9634L8.91675 13.9408L8.91092 13.9211L8.90018 13.9098L8.91577 13.9107L8.92361 13.8976L8.92264 13.8769L8.91675 13.8599L8.90503 13.8468L8.8992 13.8552L8.89527 13.8731L8.89042 13.8891L8.88654 13.8712L8.88163 13.8675L8.8758 13.8684L8.86991 13.8665V13.8703L8.86604 13.874L8.86109 13.8749L8.85917 13.8703V13.8457L8.84648 13.8486L8.84456 13.859L8.8455 13.8721L8.84254 13.8816L8.83379 13.8825L8.825 13.8768L8.81816 13.8684L8.80645 13.843V13.8336L8.81816 13.8298L8.82308 13.8251L8.82695 13.8148L8.83177 13.8044L8.83961 13.7997L8.85035 13.7912L8.8758 13.7527L8.88557 13.7404L8.86506 13.7602L8.85328 13.7677L8.83864 13.7705L8.82405 13.7696L8.81331 13.7659L8.79375 13.7565L8.80062 13.7085L8.7986 13.6567L8.80352 13.6144L8.82985 13.5947L8.82405 13.5824L8.82008 13.5749L8.81816 13.5664L8.81911 13.5504L8.82308 13.5372L8.83769 13.5185L8.84059 13.51L8.83769 13.5053L8.82695 13.4912L8.82405 13.4837L8.82597 13.4752L8.82985 13.4695L8.83379 13.4686L8.83769 13.478L8.84261 13.4827L8.85917 13.4959L8.86207 13.4969L8.86409 13.4987L8.86894 13.5053L8.87483 13.5176L8.87379 13.5241L8.86894 13.5326L8.86409 13.5495L8.86894 13.6003L8.86702 13.6078L8.88462 13.6172L8.8992 13.6398L8.90802 13.6689L8.90705 13.6972L8.91681 13.6887L8.93829 13.6811L8.95001 13.6746L8.94604 13.6661V13.6633L8.94799 13.6615L8.95001 13.6549L8.9656 13.6624L8.97924 13.6558L8.99095 13.6455L9.00465 13.6398L9.00856 13.636L9.00273 13.6285L8.99095 13.6172L8.97051 13.6096L8.95971 13.6031L8.95388 13.589L8.95873 13.5673L8.97536 13.5561L8.99684 13.5523H9.01445L9.01637 13.5504L9.01832 13.5457L9.02028 13.5411L9.02519 13.5392L9.03196 13.5411L9.03294 13.5448L9.03196 13.5495L9.03388 13.5533L9.05054 13.5646L9.05644 13.5721L9.06031 13.5824L9.06516 13.5533L9.05836 13.5448L9.05246 13.5335L9.04859 13.5194L9.04957 13.5015L9.05539 13.4865L9.06226 13.4837L9.06516 13.4903L9.06031 13.5015V13.5091L9.06815 13.5185L9.0759 13.5307L9.07987 13.5063L9.08179 13.4799L9.08758 13.4583L9.10519 13.4498L9.12377 13.4574L9.15987 13.4855L9.16673 13.4818L9.16869 13.4771L9.1735 13.479L9.17845 13.4827L9.18037 13.4846L9.18629 13.4837L9.18724 13.4799V13.4742L9.19014 13.4668L9.19111 13.4602L9.19401 13.4319L9.19798 13.4197L9.2038 13.4093L9.21067 13.4018L9.21646 13.4037L9.22141 13.4639L9.21946 13.478L9.27026 13.4385L9.31417 13.3962L9.40009 13.2861L9.49578 13.1977L9.50255 13.1826L9.51823 13.1403L9.525 13.1319L9.53776 13.1252L9.5485 13.1102L9.56507 13.0792L9.61971 13.0049L9.64217 12.9616L9.64614 12.9512V12.939L9.64025 12.9305L9.62271 12.9193L9.61877 12.9137L9.62853 12.8995L9.67052 12.9024L9.68321 12.8911L9.7154 12.8497L9.71742 12.845L9.72422 12.8121L9.72712 12.8054L9.73011 12.8008L9.73206 12.7989L9.73594 12.796L9.73206 12.7895L9.72614 12.7838H9.72324L9.71735 12.7622L9.70469 12.7349L9.70176 12.7208L9.70661 12.7114L9.73011 12.6803L9.73987 12.6719H9.74765L9.77984 12.6794L9.7896 12.6766L9.83549 12.6456L9.8463 12.6418L9.85502 12.6456L9.86189 12.6465L9.88044 12.6314L9.88724 12.6268L9.90485 12.6249L9.93707 12.6146L9.97902 12.6088L10.0191 12.5966H10.0406L10.0943 12.6107L10.1089 12.6211L10.1148 12.6126L10.1245 12.6192L10.146 12.622L10.1568 12.6277L10.1675 12.6192L10.2017 12.6013L10.2173 12.5976L10.227 12.5882L10.2535 12.5477L10.2652 12.5383L10.2661 12.5346L10.2807 12.513L10.2867 12.4989L10.2837 12.4913L10.2592 12.4725L10.2525 12.4688L10.2475 12.4622L10.2456 12.4461L10.2446 12.4396L10.2358 12.4123L10.2475 12.417L10.2564 12.4311L10.2681 12.4584L10.2788 12.4668L10.2885 12.4734L10.2974 12.4706L10.3003 12.4678L10.3013 12.464L10.3159 12.4414L10.3208 12.4358L10.3266 12.432L10.3413 12.4264L10.3471 12.4217L10.353 12.4085L10.3578 12.3925L10.3647 12.386L10.3745 12.4001L10.3384 12.4518L10.3286 12.4603V12.4706L10.3179 12.4941L10.2749 12.5638L10.2671 12.5825L10.27 12.5976L10.2759 12.6014L10.2847 12.6023L10.3013 12.6014L10.3081 12.6033L10.3189 12.6136L10.3247 12.6173L10.3423 12.6146L10.3501 12.6014L10.3559 12.5863L10.3696 12.5797L10.4165 12.5759L10.4916 12.6042L10.5248 12.6088L10.559 12.6023L10.5678 12.5976L10.5854 12.5863L10.5912 12.5797L10.5981 12.5656L10.5971 12.559L10.5932 12.5506L10.5912 12.5317L10.5971 12.4838L10.5942 12.4762L10.5649 12.4387V12.4095L10.5747 12.386L10.5912 12.37L10.6098 12.3643L10.6274 12.3521L10.641 12.3229L10.6479 12.2909L10.6449 12.2674L10.6284 12.2768L10.6108 12.2825L10.5971 12.2787L10.5902 12.2599L10.5942 12.2421L10.6049 12.2251L10.6274 12.1997L10.6019 12.195L10.5668 12.1997L10.5424 12.1893L10.5483 12.1395L10.5541 12.132L10.5649 12.1141L10.5708 12.0962L10.561 12.0878L10.557 12.0859L10.5532 12.0812L10.5472 12.0755L10.5278 12.0709L10.5239 12.0651L10.5248 12.0012L10.517 11.988L10.4828 11.9796L10.4673 11.9702L10.4555 11.9579L10.4507 11.9457L10.4525 11.9401L10.4633 11.9203L10.4663 11.9166L10.474 11.9203L10.475 11.9288L10.4712 11.9504L10.478 11.9636L10.5258 11.9862L10.5365 11.9975L10.5394 12.006V12.0172L10.5415 12.0379L10.5472 12.0548L10.5551 12.0596L10.5649 12.0624L10.5756 12.0718L10.5873 12.1L10.5844 12.1263L10.563 12.1724L10.5747 12.1846L10.5893 12.1865L10.6234 12.1809L10.6449 12.1837L10.6498 12.1913L10.6439 12.2025L10.6205 12.2364L10.6176 12.2505L10.6255 12.2599L10.6644 12.2665L10.6723 12.2778L10.6733 12.2938L10.6694 12.3154L10.6527 12.3539L10.6322 12.3859L10.6176 12.4198L10.6205 12.4649L10.6284 12.4838L10.6371 12.4988L10.6439 12.5148L10.6469 12.5355L10.6508 12.5534L10.6606 12.575L10.6733 12.5939L10.684 12.6061L10.6966 12.6117L10.7445 12.6211L10.7572 12.6295L10.768 12.669L10.7787 12.6803L10.7973 12.6578L10.805 12.6569L10.8207 12.6512L10.8295 12.6503L10.8373 12.6465L10.85 12.6314L10.8587 12.6286L10.8627 12.6314L10.8744 12.6503L10.9262 12.6775L10.9828 12.67L11.0873 12.6126L11.1058 12.6164L11.1273 12.6061L11.1477 12.591L11.1663 12.5825L11.1575 12.6004L11.1468 12.6107L11.1351 12.6192L11.1234 12.6314L11.1097 12.6399L11.0735 12.6437L11.0589 12.653L11.0042 12.6973L10.9828 12.7255L10.9975 12.7452L10.9759 12.7669L10.9457 12.7791L10.9125 12.782L10.8802 12.7744L10.8383 12.7481L10.7534 12.7293H10.7377L10.6928 12.7368L10.6264 12.7227H10.56L10.5492 12.7189L10.5043 12.6926L10.478 12.6851L10.3423 12.6954L10.3306 12.6897L10.31 12.6681L10.2855 12.6493L10.2983 12.6747L10.3891 12.764L10.3998 12.7678L10.4057 12.7744L10.4232 12.8196L10.4223 12.7857L10.4232 12.7753L10.4262 12.7668L10.4311 12.7613L10.4418 12.749L10.4545 12.7434L10.4721 12.7443L10.4897 12.749L10.5981 12.7923L10.6322 12.7979L10.6616 12.7951L10.6742 12.7998L10.7094 12.8459L10.7162 12.8591L10.7103 12.8629H10.6996L10.6898 12.8647L10.6489 12.9014L10.642 12.9061L10.5834 12.9164L10.5404 12.907L10.5239 12.9089L10.5112 12.9146L10.4955 12.9259L10.4857 12.9409L10.4897 12.9578L10.5004 12.9691L10.5122 12.9767L10.5258 12.9813L10.5747 12.9833L10.5805 12.9785L10.5785 12.9663L10.5756 12.9522L10.5795 12.939L10.6439 12.987L10.683 13.0068L10.7074 12.9974L10.7289 13.0152L10.7582 13.0528L10.768 13.0585L10.7787 13.0604L10.8138 13.0726L10.8334 13.0764L10.8539 13.0744L10.8773 13.0641L10.8754 13.0744L10.8705 13.0811L10.8558 13.0942L10.8598 13.1008L10.8627 13.1158L10.8656 13.1243L10.8666 13.1291L10.8685 13.1431L10.8695 13.1459L10.8734 13.1479L10.8832 13.1469L10.9007 13.1583L11.057 13.2015L11.0882 13.1967L11.094 13.193L11.1068 13.1799L11.1145 13.1742L11.1223 13.1714L11.22 13.1544L11.2493 13.1403L11.261 13.1376L11.2796 13.1394L11.3216 13.1535L11.3284 13.1544L11.346 13.1535L11.3519 13.1544L11.3586 13.1592L11.3646 13.1601H11.3753L11.4572 13.1469L11.468 13.1328L11.4612 13.1018L11.5071 13.1234L11.5237 13.1347L11.5314 13.1375H11.5393L11.5491 13.1328L11.5549 13.1319L11.5793 13.1196L11.5949 13.0923L11.6077 13.0622L11.6252 13.0434L11.6174 13.1187L11.6144 13.1319L11.6086 13.1459L11.6701 13.1375L11.6877 13.1431L11.6896 13.1554L11.6809 13.1704L11.6681 13.1826L11.6731 13.1836H11.6769L11.6809 13.1845L11.6848 13.1902L11.7004 13.1685L11.7209 13.1723L11.7414 13.1902L11.7648 13.2222L11.7717 13.2278H11.8194L11.8361 13.2344H11.8439L11.8283 13.2118L11.8361 13.1986L11.8557 13.193L11.8761 13.1921V13.1836L11.8557 13.1704L11.8566 13.1544L11.8703 13.1385L11.8869 13.1243L11.9064 13.1178L11.9191 13.1291L11.9425 13.1723L11.9464 13.1892L11.9396 13.2015L11.9308 13.2127L11.9318 13.225L11.9415 13.2617L11.9425 13.2692L11.9367 13.2786L11.9328 13.2889L11.9337 13.2974L11.9425 13.3011L11.9406 13.3059L11.9337 13.3181L11.9191 13.3369L11.9289 13.3435L11.9347 13.3406L11.9406 13.3341L11.9494 13.3303L11.9689 13.3284L12.0129 13.3397L12.0275 13.3473L12.0411 13.3595L12.0275 13.367L12.0012 13.3736L11.9884 13.3802L11.9767 13.3755L11.9747 13.3953L11.9767 13.4206L11.9757 13.4329L11.9591 13.4356L11.9504 13.4347L11.9464 13.4291L11.9435 13.4225L11.9366 13.4169L11.9279 13.4131L11.9201 13.4112L11.9122 13.4121L11.9035 13.4159L11.8879 13.4263L11.8693 13.4489L11.8507 13.4545L11.8429 13.4554L11.8332 13.4536L11.8185 13.4432L11.8127 13.4413L11.801 13.4461L11.7688 13.4668L11.7571 13.4714L11.7336 13.4968L11.7297 13.5034L11.7013 13.5147L11.6447 13.5486L11.6174 13.5514L11.5901 13.5363L11.5774 13.5204L11.5705 13.5156L11.5637 13.5213L11.5627 13.5316L11.5686 13.5382L11.5764 13.542L11.5803 13.5457L11.5764 13.5589L11.5666 13.5664L11.3899 13.6455L11.3371 13.6802L11.3137 13.7038L11.3079 13.7112L11.3049 13.7169L11.303 13.7263L11.3039 13.7348L11.3069 13.7452L11.3059 13.7536L11.2952 13.7574L11.2864 13.7565L11.2717 13.7508L11.2639 13.7499L11.2522 13.7517L11.2464 13.7574L11.2415 13.7649L11.2347 13.7724L11.2239 13.7809L11.2122 13.7875L11.1976 13.7922L11.179 13.794L11.1644 13.7978L11.0725 13.8655L11.0491 13.8891L11.0384 13.9173L11.0414 13.9324L11.0628 13.9897L11.0804 13.9926L11.1077 14.0057L11.1243 14.0113H11.18L11.1917 14.0048L11.219 13.9765L11.2317 13.9681L11.2483 13.9652L11.3646 13.9747L11.3968 13.9869L11.4251 14.0048L11.4748 14.0471L11.4817 14.0508L11.4954 14.0565L11.5022 14.0612L11.511 14.0772L11.5178 14.0866L11.5373 14.0979L11.5647 14.1308L11.5764 14.1411L11.6115 14.1506L11.6281 14.1591L11.6349 14.174L11.6428 14.1844L11.6604 14.1797L11.6877 14.1637L11.717 14.1533L11.7492 14.1487L11.7629 14.1543L11.8058 14.192L11.8595 14.2248L11.879 14.2494L11.8917 14.2926L11.8947 14.3199L11.8976 14.3293L11.9113 14.3556L11.9132 14.3622L11.9162 14.3791L11.9249 14.4205V14.445L11.922 14.4657L11.9172 14.4835L11.9084 14.4967L11.8781 14.5071L11.8674 14.5202L11.8605 14.5391L11.8557 14.5607L11.8537 14.5663L11.8507 14.5701L11.8449 14.5748L11.8517 14.588L11.8557 14.6039L11.8605 14.6331L11.8683 14.6547L11.8693 14.666L11.8664 14.683L11.8595 14.6943L11.8498 14.7055L11.8429 14.7187L11.8439 14.7347L11.8507 14.7403L11.8761 14.7451L11.8869 14.7488L11.8712 14.7554L11.8313 14.7563L11.8205 14.7601L11.8146 14.7639L11.8058 14.7648L11.7893 14.7639L11.7824 14.7657L11.7648 14.778L11.758 14.7808L11.7345 14.7855L11.7316 14.7827L11.7326 14.7949L11.7385 14.8071L11.8215 14.8635L11.8313 14.8739L11.8449 14.8842L11.8614 14.8833L11.8781 14.8786L11.8917 14.8777L11.9006 14.8852L11.9239 14.9143L11.9289 14.9237L11.9337 14.9435L11.9445 14.9529L12.0031 14.9793L12.0187 14.983L12.0704 14.9839L12.0792 14.983L12.0948 14.9784H12.1046L12.1534 14.9971L12.1709 15L12.1866 14.9981L12.2706 14.9595L12.2881 14.9567L12.2989 14.9529L12.3253 14.935L12.3341 14.9266L12.3448 14.9087L12.3516 14.8927L12.3614 14.8814L12.3985 14.8739L12.4083 14.8664L12.4248 14.841L12.4268 14.8373V14.8307L12.4308 14.8269L12.4317 14.8241L12.4405 14.825H12.4512L12.4688 14.8269L12.4756 14.825L12.4835 14.8118L12.5137 14.7356L12.5401 14.6915L12.5479 14.682L12.5518 14.6745L12.583 14.6322H12.5859L12.5869 14.6331V14.6359L12.5879 14.6388L12.6074 14.619L12.6328 14.6087L12.6953 14.5955L12.7246 14.5833L12.7792 14.5475L12.8076 14.5372L12.8613 14.5466L12.8739 14.5409L12.8847 14.5334L12.9101 14.5391L12.9238 14.5363L12.9297 14.5315L12.9345 14.5249L12.9404 14.5193L12.9491 14.5146L12.957 14.5136L12.9834 14.5146L12.999 14.5202L13.0087 14.5334L13.0156 14.5475L13.0234 14.5588L13.0565 14.5635L13.078 14.5306L13.0946 14.4846L13.1142 14.4506L13.1278 14.444L13.161 14.4365L13.1747 14.4243L13.1923 14.3895L13.2059 14.3801L13.2255 14.3913L13.2304 14.3867L13.2381 14.381L13.2411 14.3763L13.2782 14.4046L13.2733 14.3726L13.2743 14.3584L13.2831 14.3462L13.2948 14.3415L13.3202 14.3434L13.3309 14.3387V14.3321L13.3084 14.3227L13.3036 14.318L13.3006 14.3076L13.3026 14.2991L13.3065 14.2907L13.3084 14.2785L13.3153 14.27L13.3563 14.238L13.3846 14.2248L13.4168 14.2183H13.451L13.4843 14.2239L13.5409 14.2455L13.5917 14.2766L13.6003 14.2851L13.6239 14.3123L13.6287 14.3227L13.6356 14.3462L13.6512 14.3538L13.7049 14.3444L13.7644 14.3481L13.7761 14.3359L13.7898 14.3114L13.8074 14.2945L13.8318 14.3048V14.2973L13.8757 14.3237L13.9451 14.3387L13.9606 14.3349L13.9636 14.3292L13.9685 14.3114L13.9714 14.3048L13.9793 14.3001L13.988 14.2982L14.0573 14.2954L14.113 14.2756L14.1237 14.2663L14.1257 14.2503L14.1159 14.2343L14.0945 14.2117L14.0895 14.1892V14.1666L14.0964 14.1045L14.1022 14.0819L14.111 14.0602L14.1208 14.0462L14.1276 14.0434L14.1452 14.0424L14.152 14.0386L14.1569 14.0293L14.1549 14.0245L14.1501 14.0199L14.1471 14.0123L14.1511 13.9907L14.1618 13.9794L14.1764 13.9756L14.195 13.9785L14.2184 13.9907L14.2272 13.9935H14.237L14.2623 13.9869L14.2682 13.9756L14.2623 13.9512L14.2487 13.9144L14.237 13.9013L14.2253 13.8947L14.2126 13.8976L14.1989 13.9117L14.1872 13.9154L14.1745 13.9041L14.1549 13.8797L14.1394 13.8769L14.0934 13.8872L14.0778 13.8834L14.0535 13.8675L14.0387 13.8646L14.03 13.8675L14.0232 13.874L14.0163 13.8797H14.0065L14.0134 13.8609L14.0075 13.8477L13.9948 13.8439L13.9821 13.8542L13.9724 13.8637L13.8835 13.8627L13.8679 13.8684L13.8513 13.8843L13.8299 13.8976L13.8269 13.9023L13.8162 13.9342L13.7927 13.9634L13.7644 13.9691L13.7341 13.9587L13.6756 13.9248L13.6619 13.9144L13.6561 13.9013L13.6599 13.8825L13.6659 13.8655L13.6638 13.8552L13.6454 13.8533L13.6326 13.8609L13.6218 13.8769L13.6151 13.8966L13.6121 13.9163L13.6101 13.9211L13.5984 13.937L13.5945 13.9408L13.5838 13.9436L13.5798 13.9502L13.5789 13.9596L13.576 13.97L13.5545 13.9916L13.538 14.002L13.4003 14.0386L13.371 14.0358L13.2557 13.9577L13.0321 13.6398L12.9648 13.5119L12.9238 13.4056L12.916 13.3924L12.9071 13.3802L12.9003 13.3661L12.872 13.2353L12.8652 13.2185L12.8613 13.2024L12.8574 13.1337L12.8525 13.1159L12.8515 13.1075L12.8525 13.0961L12.8564 13.0858L12.8701 13.0679L12.873 13.0632L12.9062 13.0482L12.9081 13.0378L12.9092 13.0256L12.915 13.0162L12.9238 13.0114L12.9257 13.0162L12.9267 13.0236L12.9316 13.0303L12.9414 13.0331H12.9491L13.0224 13.0152L13.0565 12.9945L13.0829 12.9654L13.1288 12.8967L13.1552 12.8704L13.161 12.8581L13.165 12.8412L13.162 12.8318L13.1581 12.8233L13.1552 12.8093L13.1474 12.7932L13.1337 12.7735L13.1278 12.7519L13.1444 12.7312L13.1464 12.7509L13.1542 12.7706L13.1639 12.7857L13.1757 12.7932L13.1854 12.8027L13.1913 12.8064L13.1991 12.8083L13.2118 12.8093L13.2176 12.8111L13.202 12.8516L13.1971 12.8807L13.204 12.9052L13.2226 12.9211L13.2381 12.9202L13.2518 12.9089L13.2655 12.8948L13.2626 12.9221L13.2518 12.94L13.2235 12.9682L13.2011 13.0068L13.1932 13.0256L13.1747 13.0453L13.1532 13.0867L13.1132 13.1075L13.0321 13.1309L13.036 13.1413L13.038 13.1459L13.0107 13.1629L12.9863 13.1902L12.9833 13.2006L12.997 13.2052L13.0262 13.1911L13.0448 13.178L13.0712 13.1723L13.0897 13.1573L13.121 13.1469L13.1395 13.1281L13.1591 13.1018L13.2001 13.0209L13.2167 13.002L13.2908 12.8845L13.3026 12.8732L13.3299 12.8553L13.3416 12.844L13.3651 12.8121L13.3768 12.7989L13.3915 12.7886L13.4832 12.7434L13.5086 12.7208L13.5712 12.6503L13.5945 12.6323L13.6375 12.6088L13.6951 12.5769L13.7137 12.5778L13.8201 12.5581L13.8757 12.5656L13.905 12.559H13.9187L13.9353 12.5656L13.9402 12.5703L13.9441 12.575L13.9509 12.5882L13.9528 12.59L13.9616 12.5957V12.6013L13.9606 12.6079L13.9587 12.6126L13.9626 12.623L13.9636 12.6211L13.9646 12.6146L13.9724 12.6117L13.9802 12.607L13.9831 12.6107V12.6268H13.989L13.9939 12.5948L14.0085 12.5703L14.0613 12.5167L14.0837 12.4998L14.1091 12.4884L14.1482 12.4809L14.1804 12.4622H14.2311L14.237 12.4584L14.2439 12.4508L14.2526 12.4433L14.2653 12.4396L14.2868 12.4461L14.3005 12.4471L14.3131 12.4396L14.3239 12.4471L14.3492 12.4556L14.361 12.4622L14.3893 12.4941L14.3961 12.4988V12.5185L14.3863 12.5571L14.3717 12.5872L14.3561 12.5806H14.3503V12.5891L14.3697 12.5948L14.3893 12.5769L14.4039 12.5477L14.4098 12.5185L14.4176 12.4922L14.4322 12.4677L14.443 12.4433L14.4362 12.418L14.4616 12.4141L14.5026 12.3756L14.5299 12.3662L14.5387 12.3615L14.5641 12.3408L14.5728 12.3361L14.5865 12.3341L14.6763 12.3003L14.7125 12.2731L14.7271 12.2693L14.7535 12.274L14.7808 12.2872L14.7984 12.3088L14.7954 12.3361L14.8131 12.3286L14.8257 12.3107L14.8462 12.2721L14.9283 12.1602L14.9771 12.1104L15.0034 12.101L15.104 12.1187L15.1372 12.1178L15.2212 12.0887L15.2905 12.1L15.2992 12.0952L15.3188 12.1L15.3491 12.1113L15.3559 12.1085L15.3764 12.0971L15.3803 12.0934L15.3842 12.0915L15.4096 12.1113L15.4292 12.1187V12.1367L15.4115 12.1715L15.4379 12.1592L15.4799 12.1028L15.4955 12.0877L15.4829 12.0596L15.4789 12.0247L15.4838 11.9918L15.4984 11.9664L15.5131 11.957L15.5307 11.9486L15.5473 11.9382L15.558 11.9222L15.56 11.8996L15.5531 11.8874L15.5404 11.8817L15.5268 11.8808L15.4975 11.8855L15.4829 11.8837L15.4731 11.8724L15.475 11.8545L15.4848 11.8347L15.5082 11.8037L15.5277 11.7698L15.5326 11.7388L15.5297 11.6598L15.5404 11.6212L15.555 11.5826L15.5746 11.5506L15.601 11.5327L15.764 11.5111L15.7836 11.5027L15.7982 11.4904L15.8275 11.4585L15.8421 11.4481L15.8538 11.4462L15.8812 11.4566L15.8978 11.4547L15.9056 11.4368L15.9124 11.3908L15.9261 11.34L15.9456 11.2967L15.972 11.2647L16.0081 11.2506L16.1341 11.2552L16.1761 11.2825L16.1916 11.2863L16.2073 11.2853L16.2386 11.277L16.3548 11.2732L16.3703 11.2759L16.3967 11.2929L16.4104 11.2995L16.4279 11.2986L16.4612 11.2892L16.4787 11.2948L16.5012 11.2986L16.5481 11.2892L16.5715 11.291L16.6496 11.3108L16.675 11.306L16.6945 11.2873L16.7072 11.2591L16.713 11.2271L16.7121 11.2196L16.7082 11.2045V11.197L16.7101 11.1866L16.718 11.1697L16.7209 11.1612L16.7228 11.1443L16.7218 11.133L16.7111 11.1086L16.7033 11.0963L16.6974 11.0897L16.6954 11.0841L16.7023 11.0738L16.7111 11.0681L16.7541 11.0606L16.7589 11.0616L16.7609 11.0596L16.7619 11.0493L16.7501 11.0145L16.7521 10.9881L16.7619 10.9665L16.8009 10.896L16.8156 10.879L16.8527 10.8517L16.8663 10.8367L16.8761 10.816L16.878 10.7944L16.8663 10.7756L16.8497 10.7718L16.8087 10.7859L16.7931 10.7878L16.7393 10.7549L16.7921 10.7116L16.8058 10.6947L16.8233 10.6777L16.8156 10.6684L16.8097 10.6533L16.8019 10.6241L16.7775 10.5724L16.7696 10.5659L16.7619 10.5564L16.7599 10.5386L16.7638 10.5375L16.7706 10.5386L16.7785 10.5357L16.7814 10.5263L16.7804 10.5225L16.7785 10.5179L16.7765 10.5112L16.7756 10.5028L16.7696 10.4736L16.7541 10.4538L16.7336 10.4426L16.6408 10.4313L16.6252 10.437L16.5949 10.4388L16.6027 10.4106L16.6506 10.2582L16.6574 10.2488L16.6769 10.2413L16.6828 10.231L16.6877 10.2178L16.6945 10.2055L16.7101 10.1886L16.7267 10.1802L16.7453 10.1792L16.8312 10.2121L16.8624 10.2083L16.8966 10.182L16.9112 10.1632L16.922 10.1406L16.92 10.119L16.9054 10.1002L16.8858 10.0974L16.8712 10.1115L16.8575 10.1284L16.8409 10.1369L16.8312 10.1332L16.8165 10.1143L16.8087 10.1077L16.7999 10.1058L16.7726 10.1096L16.7111 10.0964L16.6925 10.0889L16.6837 10.0776L16.6779 10.0616L16.6672 10.0409L16.6534 10.0278L16.6379 10.0174L16.6271 10.0033L16.633 9.94594L16.6467 9.9365L16.6857 9.93932L16.7501 9.91769H16.7736L16.797 9.92148L16.8087 9.92048L16.8175 9.91486L16.8214 9.90361L16.8195 9.86695L16.8233 9.85093L16.84 9.82362L16.8615 9.80393L16.9073 9.77376L16.922 9.7578L16.9473 9.7183L16.962 9.70607L16.9805 9.69566L16.9864 9.68541L16.9873 9.64402L16.9981 9.60542L17 9.58472L16.9912 9.56685ZM10.8556 13.0866L10.6579 13.063L10.1711 13.0038L10.1104 12.9859L10.0743 12.9633L10.0515 12.9313L10.0266 12.8852L10 12.8796V12.8994L10.0134 12.9266L10.0247 12.9435L10.0665 12.9765L10.1141 12.9981L10.3518 13.0433L10.9032 13.1015L10.9659 13.1167L11 13.1204L10.9811 13.1129L10.8556 13.0866ZM12.1704 14.0258L12.1606 14.0032L12.1255 14.008L12.1177 13.9951L12.1099 13.9757L12.0913 13.979L12.0591 14.0032L12.0347 13.9726L12.0112 13.971L11.9576 13.9887L11.8463 13.9629L11.8394 13.95H11.8355L11.8296 13.9613L12.1567 14.05L12.1704 14.0258ZM8.98635 14.0155L8.97369 14.0259L8.95116 14.0494L8.93847 14.0597L8.92773 14.0626L8.91605 14.0644L8.90625 14.0682L8.90238 14.0785L8.89649 14.0889L8.8809 14.1011L8.84181 14.1218L8.9014 14.0974L8.97948 14.0419L9.15819 13.8782L9.10836 13.9064L8.98635 14.0155Z" fill="white"/>
</svg>