<svg width="20" height="21" viewBox="0 0 20 21" fill="none" xmlns="http://www.w3.org/2000/svg">
<path fill-rule="evenodd" clip-rule="evenodd" d="M14.7656 13.7408L19.6959 18.8686C20.113 19.3024 20.0992 19.9941 19.6657 20.4112C19.4617 20.6076 19.193 20.7156 18.9097 20.7156C18.6104 20.7156 18.3311 20.5967 18.1235 20.381L13.1557 15.2143C11.7451 16.2056 10.0952 16.7278 8.36391 16.7278C3.75212 16.7278 0 12.9757 0 8.36391C0 3.75212 3.75212 0 8.36391 0C12.9757 0 16.7278 3.75212 16.7278 8.36391C16.7278 10.3378 16.0332 12.2339 14.7656 13.7408ZM14.5459 8.36391C14.5459 4.95507 11.7727 2.18189 8.36391 2.18189C4.95507 2.18189 2.18189 4.95507 2.18189 8.36391C2.18189 11.7727 4.95507 14.5459 8.36391 14.5459C11.7727 14.5459 14.5459 11.7727 14.5459 8.36391Z" fill="#4A4A4A"/>
</svg>
