<svg width="20" height="20" viewBox="0 0 20 20" fill="none" xmlns="http://www.w3.org/2000/svg">
<path fill-rule="evenodd" clip-rule="evenodd" d="M10.0117 11.9301C11.0736 11.9301 11.9348 11.0714 11.9348 10.0114C11.9348 8.95201 11.0736 8.09326 10.0117 8.09326C8.94981 8.09326 8.08856 8.95201 8.08856 10.0114C8.08856 11.0714 8.94981 11.9301 10.0117 11.9301Z" fill="#008C40"/>
<path fill-rule="evenodd" clip-rule="evenodd" d="M12.2261 8.04652H13.578C13.7324 8.04652 13.858 7.92152 13.858 7.76777V6.4184C13.858 6.26465 13.7324 6.13965 13.578 6.13965H12.2261C12.0717 6.13965 11.9461 6.26465 11.9461 6.4184V7.76777C11.9461 7.92152 12.0717 8.04652 12.2261 8.04652Z" fill="#008C40"/>
<path fill-rule="evenodd" clip-rule="evenodd" d="M15 13.814C15 14.469 14.4681 15.0002 13.8112 15.0002H6.18875C5.5325 15.0002 5 14.469 5 13.814V6.18587C5 5.53087 5.5325 5.00024 6.18875 5.00024H13.8112C14.4681 5.00024 15 5.53087 15 6.18587V13.814ZM10 0.000244141C4.47687 0.000244141 0 4.47712 0 10.0002C0 15.5227 4.47687 20.0002 10 20.0002C15.5231 20.0002 20 15.5227 20 10.0002C20 4.47712 15.5231 0.000244141 10 0.000244141Z" fill="#008C40"/>
<path fill-rule="evenodd" clip-rule="evenodd" d="M13.0536 10.0117C13.0536 11.6849 11.6893 13.0467 10.0118 13.0467C8.33425 13.0467 6.96988 11.6849 6.96988 10.0117C6.96988 9.73423 7.00738 9.46485 7.078 9.20923H6.14238V13.558C6.14238 13.7124 6.26738 13.8374 6.42175 13.8374H13.6011C13.7561 13.8374 13.8811 13.7124 13.8811 13.558V9.20923H12.9455C13.0161 9.46485 13.0536 9.73423 13.0536 10.0117Z" fill="#008C40"/>
</svg>
