<svg width="287" height="231" viewBox="0 0 287 231" fill="none" xmlns="http://www.w3.org/2000/svg">
<g filter="url(#filter0_d)">
<path fill-rule="evenodd" clip-rule="evenodd" d="M177.838 16.6602C169.837 11.1964 160.156 8 149.725 8C136.555 8 124.579 13.0962 115.673 21.4185C107.622 18.1034 98.7985 16.2744 89.5466 16.2744C51.7266 16.2744 21.0674 46.8376 21.0674 84.5391C21.0674 93.0057 22.6135 101.112 25.4397 108.594C15.9273 117.635 10 130.392 10 144.529C10 171.949 32.2976 194.176 59.8031 194.176C66.7331 194.176 73.3324 192.765 79.3279 190.216C91.7365 207.635 112.137 219 135.199 219C152.045 219 167.47 212.937 179.397 202.88C188.502 212.788 201.588 219 216.13 219C243.635 219 265.933 196.772 265.933 169.353C265.933 159.361 262.971 150.058 257.876 142.269C269.518 133.181 277 119.04 277 103.157C277 85.2556 267.496 69.5673 253.244 60.8325C250.672 33.515 227.604 12.1372 199.529 12.1372C191.813 12.1372 184.476 13.7517 177.838 16.6602Z" fill="#008C40"/>
</g>
<path d="M56.2763 128C56.1097 128 55.9597 127.942 55.8263 127.825C55.7097 127.692 55.6513 127.542 55.6513 127.375V115.475L52.2263 118.1C52.1097 118.2 51.9847 118.25 51.8513 118.25C51.668 118.25 51.5013 118.15 51.3513 117.95L49.8763 116.025C49.793 115.892 49.7513 115.767 49.7513 115.65C49.7513 115.417 49.8513 115.242 50.0513 115.125L55.8013 110.675C55.9847 110.558 56.1847 110.5 56.4013 110.5H59.5263C59.7097 110.5 59.8597 110.558 59.9763 110.675C60.093 110.792 60.1513 110.942 60.1513 111.125V127.375C60.1513 127.542 60.093 127.692 59.9763 127.825C59.8597 127.942 59.7097 128 59.5263 128H56.2763ZM70.2226 128.275C68.7225 128.275 67.4392 128.042 66.3725 127.575C65.3059 127.092 64.4892 126.45 63.9225 125.65C63.3725 124.85 63.0809 123.983 63.0475 123.05C63.0475 122.9 63.0975 122.775 63.1975 122.675C63.2975 122.575 63.4225 122.525 63.5725 122.525H66.9225C67.3059 122.525 67.5725 122.683 67.7225 123C68.1725 124.117 69.0142 124.675 70.2475 124.675C70.9809 124.675 71.5975 124.45 72.0975 124C72.6142 123.533 72.8726 122.892 72.8726 122.075C72.8726 121.342 72.6226 120.742 72.1226 120.275C71.6392 119.808 71.0142 119.575 70.2475 119.575C69.8142 119.575 69.4642 119.633 69.1975 119.75C68.9475 119.85 68.6892 120 68.4225 120.2C68.1392 120.417 67.9142 120.525 67.7475 120.525H64.4725C64.3225 120.525 64.1892 120.475 64.0725 120.375C63.9725 120.258 63.9225 120.125 63.9225 119.975L64.8225 111.25C64.8392 111.017 64.9225 110.833 65.0725 110.7C65.2392 110.567 65.4309 110.5 65.6475 110.5H75.6726C75.8559 110.5 76.0059 110.558 76.1226 110.675C76.2559 110.792 76.3225 110.942 76.3225 111.125V113.475C76.3225 113.658 76.2559 113.808 76.1226 113.925C76.0059 114.042 75.8559 114.1 75.6726 114.1H68.4225L68.0975 117.325C68.5142 117.042 68.9725 116.833 69.4725 116.7C69.9725 116.55 70.6226 116.475 71.4226 116.475C72.4726 116.475 73.4642 116.717 74.3975 117.2C75.3309 117.667 76.0726 118.333 76.6226 119.2C77.1892 120.067 77.4725 121.058 77.4725 122.175C77.4725 123.358 77.1809 124.417 76.5976 125.35C76.0142 126.267 75.1726 126.983 74.0726 127.5C72.9892 128.017 71.7059 128.275 70.2226 128.275ZM88.1208 128C87.9708 128 87.8458 127.95 87.7458 127.85C87.6458 127.733 87.5958 127.6 87.5958 127.45C87.5958 127.367 87.6125 127.292 87.6458 127.225L93.4208 114.275H85.9458C85.7625 114.275 85.6041 114.217 85.4708 114.1C85.3541 113.967 85.2958 113.808 85.2958 113.625V111.125C85.2958 110.942 85.3541 110.792 85.4708 110.675C85.6041 110.558 85.7625 110.5 85.9458 110.5H97.6208C97.8208 110.5 97.9791 110.558 98.0958 110.675C98.2125 110.792 98.2708 110.942 98.2708 111.125V113.35C98.2708 113.7 98.1791 114.075 97.9958 114.475L92.2208 127.4C92.0375 127.8 91.7458 128 91.3458 128H88.1208ZM107.371 128.275C105.871 128.275 104.588 128.042 103.521 127.575C102.455 127.092 101.638 126.45 101.071 125.65C100.521 124.85 100.23 123.983 100.196 123.05C100.196 122.9 100.246 122.775 100.346 122.675C100.446 122.575 100.571 122.525 100.721 122.525H104.071C104.455 122.525 104.721 122.683 104.871 123C105.321 124.117 106.163 124.675 107.396 124.675C108.13 124.675 108.746 124.45 109.246 124C109.763 123.533 110.021 122.892 110.021 122.075C110.021 121.342 109.771 120.742 109.271 120.275C108.788 119.808 108.163 119.575 107.396 119.575C106.963 119.575 106.613 119.633 106.346 119.75C106.096 119.85 105.838 120 105.571 120.2C105.288 120.417 105.063 120.525 104.896 120.525H101.621C101.471 120.525 101.338 120.475 101.221 120.375C101.121 120.258 101.071 120.125 101.071 119.975L101.971 111.25C101.988 111.017 102.071 110.833 102.221 110.7C102.388 110.567 102.58 110.5 102.796 110.5H112.821C113.005 110.5 113.155 110.558 113.271 110.675C113.405 110.792 113.471 110.942 113.471 111.125V113.475C113.471 113.658 113.405 113.808 113.271 113.925C113.155 114.042 113.005 114.1 112.821 114.1H105.571L105.246 117.325C105.663 117.042 106.121 116.833 106.621 116.7C107.121 116.55 107.771 116.475 108.571 116.475C109.621 116.475 110.613 116.717 111.546 117.2C112.48 117.667 113.221 118.333 113.771 119.2C114.338 120.067 114.621 121.058 114.621 122.175C114.621 123.358 114.33 124.417 113.746 125.35C113.163 126.267 112.321 126.983 111.221 127.5C110.138 128.017 108.855 128.275 107.371 128.275ZM124.453 128.25C122.153 128.233 120.411 127.625 119.228 126.425C118.045 125.208 117.403 123.617 117.303 121.65C117.27 120.75 117.253 119.95 117.253 119.25C117.253 118.533 117.27 117.708 117.303 116.775C117.37 115.525 117.67 114.417 118.203 113.45C118.753 112.467 119.553 111.692 120.603 111.125C121.653 110.542 122.936 110.25 124.453 110.25C126.703 110.267 128.436 110.875 129.653 112.075C130.87 113.275 131.528 114.842 131.628 116.775C131.661 117.708 131.678 118.533 131.678 119.25C131.678 119.95 131.661 120.75 131.628 121.65C131.511 123.617 130.861 125.208 129.678 126.425C128.495 127.625 126.753 128.233 124.453 128.25ZM124.453 124.625C125.27 124.625 125.878 124.358 126.278 123.825C126.695 123.275 126.92 122.508 126.953 121.525C126.986 121.042 127.003 120.267 127.003 119.2C127.003 118.133 126.986 117.375 126.953 116.925C126.92 115.975 126.703 115.225 126.303 114.675C125.903 114.125 125.286 113.842 124.453 113.825C123.636 113.842 123.02 114.125 122.603 114.675C122.203 115.225 121.986 115.975 121.953 116.925C121.936 117.375 121.928 118.133 121.928 119.2C121.928 120.267 121.936 121.042 121.953 121.525C122.036 123.592 122.87 124.625 124.453 124.625ZM147.306 128.25C145.69 128.25 144.331 128 143.231 127.5C142.148 127 141.34 126.383 140.806 125.65C140.29 124.9 140.015 124.15 139.981 123.4C139.981 123.25 140.031 123.125 140.131 123.025C140.248 122.925 140.381 122.875 140.531 122.875H143.806C143.99 122.875 144.14 122.908 144.256 122.975C144.373 123.042 144.481 123.167 144.581 123.35C144.915 124.217 145.823 124.65 147.306 124.65C148.156 124.65 148.815 124.458 149.281 124.075C149.765 123.675 150.006 123.133 150.006 122.45C150.006 121.117 149.14 120.45 147.406 120.45H144.631C144.465 120.45 144.315 120.392 144.181 120.275C144.065 120.142 144.006 119.992 144.006 119.825V118.425C144.006 118.058 144.14 117.775 144.406 117.575L148.506 114.1H141.556C141.39 114.1 141.24 114.042 141.106 113.925C140.99 113.792 140.931 113.642 140.931 113.475V111.125C140.931 110.942 140.99 110.792 141.106 110.675C141.24 110.558 141.39 110.5 141.556 110.5H153.056C153.24 110.5 153.39 110.558 153.506 110.675C153.64 110.792 153.706 110.942 153.706 111.125V113.25C153.706 113.567 153.573 113.842 153.306 114.075L149.506 117.6L149.681 117.65C151.215 117.85 152.423 118.367 153.306 119.2C154.206 120.017 154.656 121.192 154.656 122.725C154.656 123.842 154.34 124.817 153.706 125.65C153.073 126.483 152.198 127.125 151.081 127.575C149.965 128.025 148.706 128.25 147.306 128.25ZM159.63 128C159.48 128 159.355 127.95 159.255 127.85C159.155 127.733 159.105 127.6 159.105 127.45C159.105 127.367 159.122 127.292 159.155 127.225L164.93 114.275H157.455C157.272 114.275 157.113 114.217 156.98 114.1C156.863 113.967 156.805 113.808 156.805 113.625V111.125C156.805 110.942 156.863 110.792 156.98 110.675C157.113 110.558 157.272 110.5 157.455 110.5H169.13C169.33 110.5 169.488 110.558 169.605 110.675C169.722 110.792 169.78 110.942 169.78 111.125V113.35C169.78 113.7 169.688 114.075 169.505 114.475L163.73 127.4C163.547 127.8 163.255 128 162.855 128H159.63ZM179.006 128.25C177.389 128.25 176.031 128 174.931 127.5C173.847 127 173.039 126.383 172.506 125.65C171.989 124.9 171.714 124.15 171.681 123.4C171.681 123.25 171.731 123.125 171.831 123.025C171.947 122.925 172.081 122.875 172.231 122.875H175.506C175.689 122.875 175.839 122.908 175.956 122.975C176.072 123.042 176.181 123.167 176.281 123.35C176.614 124.217 177.522 124.65 179.006 124.65C179.856 124.65 180.514 124.458 180.981 124.075C181.464 123.675 181.706 123.133 181.706 122.45C181.706 121.117 180.839 120.45 179.106 120.45H176.331C176.164 120.45 176.014 120.392 175.881 120.275C175.764 120.142 175.706 119.992 175.706 119.825V118.425C175.706 118.058 175.839 117.775 176.106 117.575L180.206 114.1H173.256C173.089 114.1 172.939 114.042 172.806 113.925C172.689 113.792 172.631 113.642 172.631 113.475V111.125C172.631 110.942 172.689 110.792 172.806 110.675C172.939 110.558 173.089 110.5 173.256 110.5H184.756C184.939 110.5 185.089 110.558 185.206 110.675C185.339 110.792 185.406 110.942 185.406 111.125V113.25C185.406 113.567 185.272 113.842 185.006 114.075L181.206 117.6L181.381 117.65C182.914 117.85 184.122 118.367 185.006 119.2C185.906 120.017 186.356 121.192 186.356 122.725C186.356 123.842 186.039 124.817 185.406 125.65C184.772 126.483 183.897 127.125 182.781 127.575C181.664 128.025 180.406 128.25 179.006 128.25ZM195.671 128C195.488 128 195.338 127.942 195.221 127.825C195.105 127.708 195.046 127.558 195.046 127.375V115.625C195.046 115.442 195.105 115.292 195.221 115.175C195.338 115.058 195.488 115 195.671 115H204.021C204.205 115 204.355 115.058 204.471 115.175C204.588 115.292 204.646 115.442 204.646 115.625V117.65C204.646 117.817 204.588 117.967 204.471 118.1C204.355 118.217 204.205 118.275 204.021 118.275H199.246V127.375C199.246 127.542 199.188 127.692 199.071 127.825C198.955 127.942 198.805 128 198.621 128H195.671ZM207.59 132.75C207.424 132.75 207.274 132.692 207.14 132.575C207.024 132.458 206.965 132.308 206.965 132.125V115.625C206.965 115.442 207.024 115.292 207.14 115.175C207.274 115.058 207.424 115 207.59 115H210.415C210.599 115 210.749 115.058 210.865 115.175C210.982 115.292 211.04 115.442 211.04 115.625V116.525C211.94 115.342 213.232 114.75 214.915 114.75C216.549 114.75 217.824 115.258 218.74 116.275C219.657 117.292 220.157 118.725 220.24 120.575C220.257 120.792 220.265 121.1 220.265 121.5C220.265 121.9 220.257 122.208 220.24 122.425C220.174 124.225 219.674 125.65 218.74 126.7C217.807 127.733 216.532 128.25 214.915 128.25C213.282 128.25 212.065 127.692 211.265 126.575V132.125C211.265 132.308 211.207 132.458 211.09 132.575C210.974 132.692 210.824 132.75 210.64 132.75H207.59ZM213.565 124.9C214.349 124.9 214.907 124.667 215.24 124.2C215.59 123.733 215.79 123.092 215.84 122.275C215.874 121.942 215.89 121.683 215.89 121.5C215.89 121.317 215.874 121.058 215.84 120.725C215.79 119.908 215.59 119.267 215.24 118.8C214.907 118.333 214.349 118.1 213.565 118.1C212.799 118.1 212.232 118.342 211.865 118.825C211.515 119.292 211.315 119.9 211.265 120.65L211.24 121.575L211.265 122.525C211.299 123.208 211.507 123.775 211.89 124.225C212.274 124.675 212.832 124.9 213.565 124.9ZM223.806 128C223.623 128 223.473 127.942 223.356 127.825C223.24 127.708 223.181 127.558 223.181 127.375V115.625C223.181 115.442 223.24 115.292 223.356 115.175C223.473 115.058 223.623 115 223.806 115H226.756C226.94 115 227.09 115.058 227.206 115.175C227.323 115.292 227.381 115.442 227.381 115.625V119.775H231.881V115.625C231.881 115.442 231.94 115.292 232.056 115.175C232.173 115.058 232.323 115 232.506 115H235.456C235.64 115 235.79 115.058 235.906 115.175C236.023 115.292 236.081 115.442 236.081 115.625V127.375C236.081 127.542 236.023 127.692 235.906 127.825C235.79 127.942 235.64 128 235.456 128H232.506C232.323 128 232.173 127.942 232.056 127.825C231.94 127.708 231.881 127.558 231.881 127.375V123.05H227.381V127.375C227.381 127.542 227.323 127.692 227.206 127.825C227.09 127.942 226.94 128 226.756 128H223.806Z" fill="white"/>
<defs>
<filter id="filter0_d" x="0" y="0" width="287" height="231" filterUnits="userSpaceOnUse" color-interpolation-filters="sRGB">
<feFlood flood-opacity="0" result="BackgroundImageFix"/>
<feColorMatrix in="SourceAlpha" type="matrix" values="0 0 0 0 0 0 0 0 0 0 0 0 0 0 0 0 0 0 127 0"/>
<feOffset dy="2"/>
<feGaussianBlur stdDeviation="5"/>
<feColorMatrix type="matrix" values="0 0 0 0 0 0 0 0 0 0 0 0 0 0 0 0 0 0 0.1646 0"/>
<feBlend mode="normal" in2="BackgroundImageFix" result="effect1_dropShadow"/>
<feBlend mode="normal" in="SourceGraphic" in2="effect1_dropShadow" result="shape"/>
</filter>
</defs>
</svg>