<svg width="295" height="237" viewBox="0 0 295 237" fill="none" xmlns="http://www.w3.org/2000/svg">
<g filter="url(#filter0_d)">
<path fill-rule="evenodd" clip-rule="evenodd" d="M112.133 16.9065C120.373 11.2873 130.345 8 141.088 8C154.653 8 166.988 13.2412 176.161 21.8001C184.453 18.3908 193.541 16.5098 203.07 16.5098C242.023 16.5098 273.601 47.942 273.601 86.7156C273.601 95.423 272.009 103.76 269.098 111.454C278.895 120.753 285 133.873 285 148.412C285 176.611 262.034 199.471 233.705 199.471C226.567 199.471 219.77 198.02 213.595 195.398C200.814 213.312 179.803 225 156.049 225C138.699 225 122.812 218.764 110.527 208.421C101.149 218.611 87.6713 225 72.6943 225C44.3647 225 21.399 202.14 21.399 173.941C21.399 163.665 24.449 154.097 29.6972 146.087C17.7062 136.741 10 122.198 10 105.863C10 87.4526 19.7888 71.3181 34.4683 62.335C37.1172 34.2406 60.8755 12.2549 89.7927 12.2549C97.7394 12.2549 105.297 13.9153 112.133 16.9065Z" fill="white"/>
</g>
<defs>
<filter id="filter0_d" x="3.05176e-05" y="0" width="295" height="237" filterUnits="userSpaceOnUse" color-interpolation-filters="sRGB">
<feFlood flood-opacity="0" result="BackgroundImageFix"/>
<feColorMatrix in="SourceAlpha" type="matrix" values="0 0 0 0 0 0 0 0 0 0 0 0 0 0 0 0 0 0 127 0"/>
<feOffset dy="2"/>
<feGaussianBlur stdDeviation="5"/>
<feColorMatrix type="matrix" values="0 0 0 0 0 0 0 0 0 0 0 0 0 0 0 0 0 0 0.1646 0"/>
<feBlend mode="normal" in2="BackgroundImageFix" result="effect1_dropShadow"/>
<feBlend mode="normal" in="SourceGraphic" in2="effect1_dropShadow" result="shape"/>
</filter>
</defs>
</svg>
